<svg xmlns="http://www.w3.org/2000/svg" width="352.11" height="64.84" preserveAspectRatio="none"><defs><style>.cls-1{fill:#009fad}.cls-2{fill:#1b365d}.cls-3{fill:#d0d2d3}</style></defs><g id="Layer_2" data-name="Layer 2"><g id="Layer_1-2" data-name="Layer 1"><path class="cls-1" d="M28.2 0l-8.62 4.96 8.62 4.97 8.6-4.97L28.2 0zM18.62 5.51l-8.59 4.97 8.59 4.96 8.6-4.96-8.6-4.97zM37.75 5.51l-8.6 4.97 8.6 4.96 8.6-4.96-8.6-4.97zM47.3 11.03l-8.6 4.96 8.6 4.96 8.6-4.96-8.6-4.96zM9.07 11.03L.48 15.99l8.59 4.96 8.6-4.96-8.6-4.96z"/><path class="cls-2" d="M0 48.83l8.6 4.96v-9.93L0 38.9v9.93zM9.55 54.34l8.6 4.99v-9.95l-8.6-4.96v9.92zM0 37.8l8.6 4.96v-9.92L0 27.87v9.93zM0 26.77l8.6 4.96v-9.95L0 16.82v9.95zM19.1 59.88l8.62 4.96v-9.95l-8.62-4.96v9.95z"/><path class="cls-3" d="M56.4 48.83l-8.63 4.96v-9.93l8.63-4.96v9.93zM46.82 54.34l-8.59 4.99v-9.95l8.59-4.96v9.92zM56.4 37.8l-8.63 4.96v-9.92l8.63-4.97v9.93zM56.4 26.77l-8.63 4.96v-9.95l8.63-4.96v9.95zM37.27 59.88l-8.59 4.96v-9.95l8.59-4.96v9.95z"/><path class="cls-1" d="M28.2 54.07l8.6-4.97-8.6-4.96-8.62 4.96 8.62 4.97zM37.75 48.55l8.6-4.96-8.6-4.96-8.6 4.96 8.6 4.96zM18.62 48.55l8.6-4.96-8.6-4.96-8.59 4.96 8.59 4.96z"/><path class="cls-2" d="M46.82 21.78l-8.59-4.96v9.95l8.59 4.96v-9.95zM37.27 16.27l-8.59-4.97v9.93l8.59 4.99v-9.95zM46.82 32.84l-8.59-4.97v9.93l8.59 4.96v-9.92z"/><path class="cls-3" d="M9.55 21.78l8.6-4.96v9.95l-8.6 4.96v-9.95zM19.1 16.27l8.62-4.97v9.93l-8.62 4.99v-9.95zM9.55 32.84l8.6-4.97v9.93l-8.6 4.96v-9.92zM37.27 37.8v-9.93l-8.59 4.97v9.92l8.59-4.96z"/><path class="cls-2" d="M19.1 37.8l8.6 4.96v-9.92l-8.6-4.97v9.93z"/><path class="cls-1" d="M28.2 22.06l-8.62 4.99 8.62 4.96 8.6-4.96-8.6-4.99z"/><path class="cls-2" d="M95.87 52l-1.82-5.83H82L80.08 52H70l14.26-39.15h7.42L105.93 52zm-7.65-24.3L84.7 38.14h6.82zM128.65 48.54a13.82 13.82 0 01-19 0c-2.47-2.69-3.25-5.5-3.25-11.33s.77-8.63 3.25-11.33a13.82 13.82 0 0119 0c2.47 2.69 3.24 5.55 3.24 11.33s-.77 8.63-3.24 11.33zm-7.09-17.49a4 4 0 00-4.84 0c-1.16 1.15-1.32 3.24-1.32 6.16s.17 5 1.32 6.16a4 4 0 004.84 0c1.16-1.15 1.32-3.24 1.32-6.16s-.17-5.01-1.33-6.16zM151.64 38h-5.88v14h-9.62V12.85h15.51c8.67 0 13.35 6.15 13.35 12.59S160.32 38 151.64 38zm-.44-16.55h-5.44v7.95h5.44a4 4 0 100-7.92zM181.06 52.33c-6 0-10.89-1.1-14.85-5.17l6.16-6.16c2 2 5.61 2.75 8.74 2.75 3.79 0 5.61-1.26 5.61-3.52a3.27 3.27 0 00-.77-2.31 4.37 4.37 0 00-2.58-1l-4.73-.66c-3.46-.5-6.1-1.65-7.86-3.46s-2.69-4.51-2.69-7.86c0-7.15 5.39-12.37 14.3-12.37 5.61 0 9.84 1.32 13.2 4.67l-6 6c-2.47-2.47-5.72-2.31-7.42-2.31-3.35 0-4.73 1.92-4.73 3.63a2.58 2.58 0 00.77 1.81 4.41 4.41 0 002.7 1.15l4.73.66c3.52.5 6 1.6 7.7 3.24 2.09 2 2.92 4.95 2.92 8.58-.08 8-6.95 12.33-15.2 12.33z"/><path class="cls-1" d="M230.78 48.15a14.81 14.81 0 01-20.62 0c-3.85-3.85-3.79-8.19-3.79-15.73s-.05-11.88 3.79-15.73a14.81 14.81 0 0120.62 0c3.85 3.85 3.74 8.19 3.74 15.73s.11 11.88-3.74 15.73zm-4.51-27.88a8.23 8.23 0 00-11.66 0c-1.92 2.09-2.31 4.29-2.31 12.15s.38 10.06 2.31 12.15a8.23 8.23 0 0011.66 0c1.92-2.09 2.31-4.29 2.31-12.15s-.39-10.06-2.31-12.15zM258.28 52V35c0-4.34-2.47-6.21-5.61-6.21s-5.77 1.93-5.77 6.21v17h-5.61V24.12h5.5v2.8a10 10 0 017.42-3.13 9.67 9.67 0 016.87 2.53c2.14 2.09 2.8 4.73 2.8 7.86V52zM278.63 52c-5.33 0-7.64-3.57-7.64-7.7V12.85h5.61V44c0 2.14.77 3.24 3 3.24h2.47V52zM286.71 18.62v-5.94h5.94v5.94zm.17 33.38V24.12h5.61V52zM317 52V35c0-4.34-2.47-6.21-5.61-6.21s-5.77 1.92-5.77 6.21v17H300V24.12h5.5v2.8a10 10 0 017.42-3.13 9.67 9.67 0 016.87 2.53c2.14 2.09 2.8 4.73 2.8 7.86V52zM334 39.68c0 4.78 2.53 7.81 7.09 7.81a8.33 8.33 0 006.76-2.86l3.6 3.37A13.09 13.09 0 01341 52.33c-7 0-12.54-3.68-12.54-14.3 0-9 4.67-14.24 11.82-14.24 7.48 0 11.82 5.5 11.82 13.42v2.47zM345.78 32a5.75 5.75 0 00-5.5-3.52 5.82 5.82 0 00-5.55 3.52 8.82 8.82 0 00-.71 3.79h12.54a8.8 8.8 0 00-.78-3.79z"/></g></g></svg>