<svg width="200" height="200" xmlns="http://www.w3.org/2000/svg"><g fill="none" fill-rule="evenodd"><ellipse fill="#FFF" cx="133" cy="55.5" rx="14" ry="12.5"/><path d="M134.978 35.686a84.432 84.432 0 014.427 1.97 10.138 10.138 0 016.916-3.041 10.135 10.135 0 011.317 7.57c17.26 10.785 30.331 27.594 36.232 47.461h-6.42a33.882 33.882 0 00-30.75-19.55c-18.703 0-33.865 15.08-33.865 33.683 0 3.395.505 6.672 1.445 9.763h-11.314v-10.423H99.61v10.423H89.417v-10.423H75.992v10.423H65.796v-10.423H62.44v10.423H52.244v-10.423H45.53v10.423H18c0-46.506 37.905-84.206 84.664-84.206a85.118 85.118 0 0123.891 3.4 10.193 10.193 0 014.471-3.672 10.153 10.153 0 013.952 6.622zm-2.174 27.669c4.676 0 8.466-3.77 8.466-8.42 0-4.651-3.79-8.421-8.466-8.421-4.676 0-8.467 3.77-8.467 8.42s3.791 8.42 8.467 8.42zm3.048-2.358a3.377 3.377 0 01-3.387-3.368 3.377 3.377 0 013.387-3.368 3.377 3.377 0 013.386 3.368 3.377 3.377 0 01-3.386 3.368z" fill="#FB5252"/><path d="M18.324 154v-32.703h11.208c1.767 0 3.354.176 4.762.528 1.408.352 2.598.887 3.571 1.606a7.04 7.04 0 012.235 2.751c.517 1.116.775 2.437.775 3.964 0 1.498-.404 2.846-1.213 4.043-.808 1.198-1.991 2.127-3.549 2.786.944.254 1.763.625 2.46 1.111a6.86 6.86 0 011.73 1.719 7.27 7.27 0 011.021 2.178c.225.794.337 1.618.337 2.471 0 1.572-.258 2.954-.775 4.144a7.81 7.81 0 01-2.246 2.987c-.98.802-2.171 1.404-3.571 1.809-1.4.404-2.984.606-4.75.606H18.323zm5.683-14.757v10.22h6.311c.929 0 1.749-.12 2.46-.36.711-.24 1.306-.58 1.785-1.021.48-.442.839-.97 1.079-1.584.24-.614.359-1.295.359-2.044 0-1.617-.427-2.89-1.28-3.818-.854-.929-2.239-1.393-4.156-1.393h-6.558zm0-4.178h5.57c1.767 0 3.148-.4 4.144-1.201s1.494-1.936 1.494-3.403c0-1.617-.46-2.785-1.382-3.504-.92-.719-2.354-1.078-4.3-1.078h-5.526v9.186zm47.258-13.768v21.877c0 1.872-.319 3.511-.955 4.919-.636 1.407-1.509 2.583-2.617 3.526-1.108.944-2.403 1.651-3.885 2.123-1.483.471-3.07.707-4.762.707-1.752 0-3.373-.236-4.863-.707-1.49-.472-2.781-1.18-3.874-2.123-1.094-.943-1.947-2.119-2.561-3.526-.614-1.408-.92-3.047-.92-4.92v-21.876h5.66v21.877c0 1.168.153 2.175.46 3.02.307.847.745 1.547 1.314 2.1a5.219 5.219 0 002.066 1.225c.809.262 1.715.393 2.718.393s1.913-.13 2.729-.393c.816-.262 1.505-.67 2.066-1.224.562-.554.996-1.254 1.303-2.1.307-.846.46-1.853.46-3.021v-21.877h5.66zm31.13 28.458c-.344.45-.823.947-1.437 1.494-.614.546-1.404 1.055-2.37 1.527-.965.472-2.126.868-3.481 1.19-1.355.322-2.946.483-4.773.483-2.051 0-3.934-.352-5.649-1.055a12.242 12.242 0 01-4.414-3.055c-1.227-1.333-2.182-2.972-2.863-4.92-.682-1.946-1.022-4.17-1.022-6.67v-2.156c0-2.486.307-4.706.92-6.66.615-1.954 1.498-3.605 2.651-4.953a11.248 11.248 0 014.223-3.077c1.662-.703 3.549-1.055 5.66-1.055 1.991 0 3.728.258 5.21.775 1.483.516 2.734 1.239 3.752 2.167a10.11 10.11 0 012.403 3.313c.584 1.28.973 2.684 1.168 4.211h-5.57a9.592 9.592 0 00-.674-2.358 5.74 5.74 0 00-1.292-1.864c-.546-.524-1.22-.936-2.021-1.236-.801-.299-1.756-.449-2.864-.449-1.333 0-2.49.247-3.47.741-.98.495-1.797 1.217-2.448 2.168-.652.95-1.138 2.119-1.46 3.504-.322 1.385-.483 2.96-.483 4.728v2.201c0 1.797.194 3.388.584 4.773.39 1.385.947 2.55 1.673 3.493a7.217 7.217 0 002.65 2.156c1.041.494 2.22.741 3.538.741.973 0 1.808-.064 2.505-.19.696-.128 1.284-.29 1.763-.484.479-.194.872-.408 1.179-.64a5.82 5.82 0 00.752-.662v-6.402h-6.738v-4.312h12.399v12.533zm23.337-4.178c0-.659-.097-1.246-.292-1.763-.194-.517-.55-.992-1.066-1.426-.517-.435-1.228-.85-2.134-1.247-.906-.397-2.07-.812-3.493-1.246a33.648 33.648 0 01-4.312-1.595c-1.318-.6-2.452-1.295-3.403-2.09a8.944 8.944 0 01-2.235-2.74c-.54-1.033-.809-2.215-.809-3.548 0-1.318.281-2.53.843-3.639a8.623 8.623 0 012.37-2.875c1.017-.808 2.238-1.437 3.66-1.887 1.423-.449 2.995-.673 4.717-.673 1.842 0 3.497.265 4.964.797 1.467.532 2.707 1.254 3.717 2.168a9.328 9.328 0 013.133 7.03h-5.66c0-.794-.123-1.524-.37-2.19a4.548 4.548 0 00-1.134-1.73c-.51-.486-1.153-.864-1.932-1.134-.779-.27-1.7-.404-2.763-.404-1.003 0-1.872.112-2.605.337-.734.224-1.344.539-1.83.943a3.721 3.721 0 00-1.079 1.438 4.603 4.603 0 00-.348 1.796c0 1.213.573 2.224 1.718 3.033 1.146.808 2.894 1.557 5.245 2.246 1.842.539 3.436 1.138 4.784 1.797 1.348.658 2.467 1.403 3.358 2.234.89.832 1.553 1.767 1.988 2.808.434 1.04.651 2.212.651 3.515 0 1.378-.273 2.617-.82 3.718a7.94 7.94 0 01-2.336 2.807c-1.01.771-2.235 1.363-3.672 1.775-1.438.411-3.04.617-4.807.617a17.2 17.2 0 01-4.65-.64c-1.526-.427-2.897-1.07-4.11-1.932a10.066 10.066 0 01-2.93-3.223c-.742-1.287-1.112-2.8-1.112-4.537h5.682c0 1.033.184 1.92.55 2.662a4.967 4.967 0 001.505 1.82c.637.47 1.39.815 2.258 1.032.868.217 1.804.326 2.807.326 1.977 0 3.463-.4 4.459-1.202.996-.8 1.493-1.86 1.493-3.178zm29.784-6.177h-13.432v10.063h15.7V154h-21.383v-32.703h21.226v4.582h-15.543v9.03h13.432v4.491zm26.01 0h-13.432v10.063h15.7V154H162.41v-32.703h21.226v4.582h-15.543v9.03h13.431v4.491z" fill="#1E3046"/></g></svg>