<?xml version="1.0" encoding="utf-8"?>
<!-- Generator: Adobe Illustrator 19.2.1, SVG Export Plug-In . SVG Version: 6.00 Build 0)  -->
<svg version="1.1" id="layer" xmlns="http://www.w3.org/2000/svg" xmlns:xlink="http://www.w3.org/1999/xlink" x="0px" y="0px"
	 viewBox="0 0 652 652" style="enable-background:new 0 0 652 652;" xml:space="preserve">
<style type="text/css">
	.st0{fill:#33AACC;}
	.st1{fill:#FFFFFF;}
</style>
<g>
	<path d="M233.4,319.1c0.1,4.8-0.8,9.6-2.5,14.1c-3.2,8.4-9.8,15.1-18.2,18.3c-4.6,1.8-9.5,2.6-14.4,2.6h-26.4v-70h26.4
		c4.9-0.1,9.8,0.8,14.4,2.6c4.1,1.6,7.9,4.1,11.1,7.2c3.1,3.2,5.6,6.9,7.1,11.1C232.6,309.4,233.4,314.2,233.4,319.1L233.4,319.1z
		 M220.1,319.1c0.1-3.5-0.5-7-1.5-10.3c-0.9-2.9-2.4-5.5-4.4-7.7c-1.9-2.1-4.3-3.8-6.9-4.9c-2.9-1.2-6-1.7-9.1-1.7h-13.5v49.3h13.5
		c3.1,0.1,6.2-0.5,9.1-1.7c2.6-1.1,5-2.7,6.9-4.9c2-2.2,3.5-4.9,4.4-7.7C219.7,326.1,220.2,322.6,220.1,319.1L220.1,319.1
		L220.1,319.1z M241.8,311.3c5.7-5.2,12.5-7.8,20.4-7.8c2.6,0,5.3,0.4,7.7,1.4c2.2,0.9,4.1,2.3,5.8,4c1.6,1.8,2.8,3.8,3.6,6.1
		c0.8,2.5,1.2,5.1,1.2,7.7v31.4h-5.4c-0.9,0.1-1.8-0.1-2.6-0.5c-0.6-0.3-1.1-1-1.4-2.1l-1.1-3.6c-1.2,1.1-2.4,2.1-3.6,3
		c-1.2,0.8-2.4,1.6-3.7,2.1c-1.3,0.6-2.7,1-4.1,1.3c-1.6,0.3-3.2,0.5-4.8,0.4c-2,0-3.9-0.3-5.8-0.8c-1.7-0.5-3.2-1.4-4.6-2.5
		c-1.3-1.2-2.3-2.6-3-4.2c-0.7-1.9-1.1-3.9-1.1-5.9c0-1.3,0.2-2.5,0.6-3.7c0.4-1.3,1.1-2.5,2-3.5c1.1-1.2,2.3-2.3,3.7-3.2
		c1.7-1.1,3.6-2,5.5-2.6c2.5-0.8,5.1-1.4,7.7-1.8c3.3-0.5,6.6-0.8,10-0.8v-2.9c0-3.3-0.7-5.8-2.1-7.4c-1.4-1.6-3.4-2.4-6.1-2.4
		c-1.6,0-3.2,0.2-4.8,0.7c-1.2,0.4-2.3,0.9-3.3,1.5c-0.9,0.5-1.8,1-2.6,1.5c-0.8,0.5-1.7,0.7-2.6,0.7c-0.8,0-1.5-0.2-2.1-0.7
		c-0.6-0.4-1-0.9-1.4-1.5L241.8,311.3C241.8,311.3,241.8,311.3,241.8,311.3z M269,332.9c-2.9,0.1-5.8,0.4-8.6,0.9
		c-1.9,0.3-3.8,0.9-5.6,1.7c-1.2,0.5-2.2,1.3-3,2.4c-0.6,0.9-0.9,1.9-0.9,3c0,2.1,0.6,3.6,1.8,4.5c1.2,0.9,2.8,1.4,4.8,1.4
		c2.2,0.1,4.3-0.4,6.3-1.3c2-1,3.7-2.4,5.2-4L269,332.9L269,332.9z M308.7,354.8c-4.3,0-7.6-1.2-9.9-3.7c-2.3-2.4-3.4-5.8-3.4-10.1
		v-27.7h-5c-0.6,0-1.2-0.2-1.6-0.6c-0.5-0.5-0.7-1.2-0.7-1.9v-4.7l7.9-1.3l2.5-13.6c0.1-0.6,0.4-1.1,0.9-1.5
		c0.5-0.4,1.1-0.6,1.7-0.5h6.1v15.6h13.2v8.5h-13.2v26.9c0,1.5,0.4,2.8,1.1,3.6c0.8,0.9,1.9,1.4,3.1,1.3c0.6,0,1.3-0.1,1.8-0.3
		c0.5-0.2,0.9-0.3,1.3-0.6c0.4-0.2,0.7-0.4,1-0.6c0.3-0.2,0.6-0.3,0.9-0.3c0.3,0,0.6,0.1,0.9,0.3c0.3,0.2,0.5,0.5,0.7,0.8l3.6,5.8
		c-1.8,1.5-3.8,2.6-5.9,3.3C313.4,354.5,311.1,354.8,308.7,354.8L308.7,354.8L308.7,354.8z M328.2,311.3c5.7-5.2,12.5-7.8,20.4-7.8
		c2.6,0,5.3,0.4,7.7,1.4c2.2,0.9,4.1,2.3,5.8,4c1.6,1.8,2.8,3.8,3.6,6.1c0.8,2.5,1.2,5.1,1.2,7.7v31.4h-5.4
		c-0.9,0.1-1.8-0.1-2.6-0.5c-0.6-0.3-1.1-1-1.4-2.1l-1.1-3.6c-1.2,1.1-2.4,2.1-3.6,3c-1.2,0.8-2.4,1.6-3.7,2.1
		c-1.3,0.6-2.7,1-4.1,1.3c-1.6,0.3-3.2,0.5-4.8,0.4c-1.9,0-3.9-0.3-5.8-0.8c-1.7-0.5-3.2-1.4-4.6-2.5c-1.3-1.2-2.3-2.6-3-4.2
		c-0.7-1.9-1.1-3.9-1.1-5.9c0-2.7,0.9-5.3,2.7-7.3c1.1-1.2,2.3-2.3,3.7-3.2c1.7-1.1,3.6-2,5.5-2.6c2.5-0.8,5.1-1.4,7.7-1.8
		c3.3-0.5,6.6-0.8,10-0.9v-2.9c0-3.3-0.7-5.8-2.1-7.4c-1.4-1.6-3.4-2.4-6.1-2.4c-1.6,0-3.2,0.2-4.8,0.7c-1.2,0.4-2.3,0.9-3.3,1.5
		c-0.9,0.5-1.8,1-2.6,1.5c-0.8,0.5-1.7,0.7-2.6,0.7c-0.8,0-1.5-0.2-2.1-0.7c-0.6-0.4-1-0.9-1.4-1.5L328.2,311.3
		C328.2,311.3,328.2,311.3,328.2,311.3z M355.3,332.9c-2.9,0.1-5.8,0.4-8.6,0.9c-1.9,0.3-3.8,0.9-5.6,1.7c-1.2,0.5-2.2,1.3-3,2.4
		c-0.6,0.9-0.9,1.9-0.9,2.9c0,2.1,0.6,3.6,1.8,4.5c1.2,0.9,2.8,1.4,4.8,1.4c2.2,0.1,4.3-0.4,6.3-1.3c2-1,3.7-2.4,5.2-4V332.9
		L355.3,332.9z M427.9,337.6c0.7,0,1.4,0.3,1.9,0.8l5.1,5.6c-2.8,3.5-6.3,6.3-10.4,8.1c-4.1,1.9-9,2.8-14.8,2.8
		c-5.1,0-9.8-0.9-13.9-2.7c-4-1.7-7.6-4.2-10.5-7.4c-3-3.3-5.3-7.1-6.7-11.3c-1.6-4.6-2.4-9.5-2.3-14.4c-0.1-4.9,0.8-9.8,2.5-14.4
		c1.6-4.2,3.9-8,7-11.3c3.1-3.2,6.7-5.7,10.8-7.4c4.4-1.8,9.1-2.7,13.9-2.7c5,0,9.5,0.8,13.5,2.5c3.7,1.5,7.1,3.8,10,6.6l-4.3,6
		c-0.3,0.4-0.6,0.7-1,1c-0.5,0.3-1.1,0.5-1.7,0.4c-0.5,0-1-0.2-1.5-0.4c-0.6-0.3-1.1-0.6-1.7-1c-0.7-0.5-1.4-0.9-2.1-1.3
		c-0.9-0.5-1.8-1-2.8-1.3c-1.2-0.4-2.4-0.8-3.7-1c-1.6-0.3-3.2-0.4-4.8-0.4c-2.9,0-5.8,0.5-8.5,1.7c-2.6,1.1-4.8,2.7-6.6,4.8
		c-1.9,2.3-3.4,4.9-4.3,7.7c-1.1,3.4-1.6,6.9-1.5,10.4c-0.1,3.6,0.5,7.1,1.7,10.5c1,2.9,2.5,5.5,4.5,7.7c1.9,2.1,4.1,3.7,6.7,4.8
		c2.6,1.1,5.4,1.7,8.3,1.7c1.6,0,3.2-0.1,4.8-0.3c1.3-0.2,2.7-0.5,3.9-0.9c1.2-0.4,2.3-1,3.4-1.6c1.1-0.7,2.2-1.5,3.2-2.4
		c0.3-0.3,0.6-0.5,1-0.7C427.1,337.6,427.5,337.5,427.9,337.6C427.9,337.5,427.9,337.6,427.9,337.6z M442,311.3
		c5.7-5.2,12.5-7.8,20.4-7.8c2.6,0,5.3,0.4,7.7,1.4c2.2,0.9,4.1,2.3,5.8,4c1.6,1.8,2.8,3.8,3.6,6.1c0.8,2.5,1.2,5.1,1.2,7.7v31.4
		h-5.4c-0.9,0.1-1.8-0.1-2.6-0.5c-0.6-0.3-1.1-1-1.4-2.1l-1.1-3.6c-1.2,1.1-2.4,2.1-3.6,3c-1.2,0.8-2.4,1.6-3.7,2.1
		c-1.3,0.6-2.7,1-4.1,1.3c-1.6,0.3-3.2,0.5-4.8,0.4c-1.9,0-3.9-0.3-5.8-0.8c-1.7-0.5-3.2-1.4-4.6-2.5c-1.3-1.2-2.3-2.6-3-4.2
		c-0.7-1.9-1.1-3.9-1.1-5.9c0-1.3,0.2-2.5,0.6-3.7c0.4-1.3,1.1-2.5,2-3.5c1.1-1.2,2.3-2.3,3.7-3.2c1.7-1.1,3.6-2,5.5-2.6
		c2.5-0.8,5.1-1.4,7.7-1.8c3.3-0.5,6.6-0.8,10-0.8v-2.9c0-3.3-0.7-5.8-2.1-7.4c-1.4-1.6-3.4-2.4-6.1-2.4c-1.6,0-3.2,0.2-4.8,0.7
		c-1.2,0.4-2.3,0.9-3.3,1.5c-1,0.6-1.8,1.1-2.6,1.5c-0.8,0.5-1.7,0.7-2.6,0.7c-0.8,0-1.5-0.2-2.1-0.7c-0.6-0.4-1-0.9-1.4-1.5
		L442,311.3C442,311.3,442,311.3,442,311.3z M469.2,332.9c-2.9,0.1-5.8,0.4-8.6,0.9c-1.9,0.3-3.8,0.9-5.6,1.7
		c-1.2,0.5-2.2,1.3-3,2.4c-0.6,0.9-0.9,1.9-0.9,3c0,2.1,0.6,3.6,1.8,4.5c1.2,0.9,2.8,1.4,4.8,1.4c2.2,0.1,4.3-0.4,6.3-1.3
		c2-1,3.7-2.4,5.2-4L469.2,332.9L469.2,332.9z M493.2,354.1v-49.7h7.2c1.4-0.1,2.7,0.8,3,2.2l0.8,3.7c0.8-0.9,1.7-1.8,2.7-2.7
		c1.9-1.6,4.1-2.8,6.5-3.5c1.3-0.3,2.7-0.5,4-0.5c3.1,0,5.7,0.8,7.7,2.5c2.1,1.8,3.6,4.1,4.5,6.8c0.7-1.6,1.7-3,2.9-4.2
		c1.1-1.1,2.4-2.1,3.8-2.9c1.4-0.7,2.9-1.3,4.4-1.7c1.5-0.3,3.1-0.5,4.7-0.5c2.5,0,4.9,0.4,7.2,1.3c2,0.8,3.9,2.1,5.3,3.7
		c1.5,1.7,2.6,3.7,3.3,5.9c0.8,2.6,1.2,5.3,1.1,8v31.6h-11.8v-31.6c0-3.2-0.7-5.5-2.1-7.1c-1.4-1.6-3.4-2.4-6-2.4
		c-1.2,0-2.3,0.2-3.4,0.6c-1,0.4-2,1-2.7,1.8c-0.8,0.9-1.4,1.9-1.8,3c-0.5,1.3-0.7,2.7-0.7,4.1v31.6h-11.9v-31.6
		c0-3.3-0.7-5.7-2-7.3c-1.3-1.5-3.3-2.3-5.8-2.3c-1.7,0-3.4,0.4-4.8,1.3c-1.6,0.9-3,2.1-4.1,3.5v36.4L493.2,354.1L493.2,354.1
		L493.2,354.1z M586,311.2c1.9-2.2,4.3-4.1,6.9-5.6c2.6-1.4,5.6-2.1,9-2.1c2.6,0,5.1,0.6,7.4,1.7c2.3,1.2,4.2,2.9,5.8,4.9
		c1.7,2.4,3,5.1,3.7,7.9c0.9,3.5,1.4,7.2,1.3,10.8c0,3.5-0.5,7-1.5,10.3c-0.9,3-2.3,5.8-4.2,8.2c-1.8,2.3-4.1,4.1-6.7,5.4
		c-2.7,1.3-5.7,2-8.7,2c-2.4,0.1-4.8-0.4-7.1-1.3c-1.9-0.9-3.7-2.1-5.2-3.5v20.3h-11.8v-65.9h7.2c1.4-0.1,2.7,0.8,3,2.2L586,311.2
		L586,311.2z M586.7,341.2c1.2,1.5,2.7,2.7,4.4,3.5c1.6,0.7,3.4,1,5.2,1c1.7,0,3.3-0.3,4.8-1c1.5-0.7,2.7-1.8,3.7-3.1
		c1.1-1.6,1.9-3.4,2.3-5.2c0.6-2.4,0.9-5,0.8-7.5c0-2.5-0.2-5-0.7-7.4c-0.4-1.7-1-3.4-2-4.9c-0.8-1.2-1.9-2.1-3.1-2.8
		c-1.3-0.6-2.8-0.9-4.2-0.9c-2.2-0.1-4.4,0.5-6.3,1.6c-1.9,1.2-3.5,2.7-4.9,4.4L586.7,341.2L586.7,341.2z"/>
	<path class="st0" d="M83.3,389.4c-0.7,0-1.4-0.2-2.1-0.5l-50.7-28.1c-1.2-0.7-2-1.9-2.2-3.3l-8.2-78.3c-0.2-2,1-3.9,2.9-4.6
		l58.3-20.7c0.9-0.3,1.9-0.3,2.8,0l59.5,20.6c1.9,0.7,3.1,2.6,2.9,4.6l-9.5,78.3c-0.2,1.4-1,2.6-2.1,3.3l-49.4,28.1
		C84.8,389.2,84,389.4,83.3,389.4C83.3,389.4,83.3,389.4,83.3,389.4z"/>
	<path class="st1" d="M108.5,311.2c1.2-4.8,1-9.3-1.6-15.7c0,0,4.2,1.6,3.8-1.6c-0.4-3.3-5.1-6.7-8.5-8.9c-1.5-1-5.7-3-11.2-4.3
		l1-2.4l-0.3-0.1c-8.6-4.2-18.5-0.4-18.6-0.4l-0.3,0.1l1,2.6c-2.9,0.7-5.7,1.7-8.3,3.1c-23.4,12.5-11.5,37-4.3,42.9
		c7.2,5.8,3.9,17.7,0,28.5h31.4c0.4-2,0.1,1,1.5-7c1.5-8,7.1-5.1,11.5-5.3c4.4-0.3,3.7-3.4,3.7-6.9c2.2-1,2.2-2,0.7-3.3
		c1.9-1.8,1.6-1.8,0.6-3.5c-1-1.7-0.3-2.5-0.3-2.5s3-0.6,3.5-2.2C113.8,321,107.3,316,108.5,311.2
		C108.5,311.2,108.5,311.2,108.5,311.2z"/>
	<path class="st0" d="M102,310.2l-4.6-1.6c-0.2,0.6-2.6,6.6-5.7,7.6l-2.9-3.9c-1.4,1.1-4.6,2.1-6.2,1.6v-0.1h-0.1l0.1,10.8
		c-6.2,0.6-13.5-3.1-17.1-8.3l-3.9,2.9c-4.4-5.3-5.1-11.8-5.1-15.5h5.2c0-4.1,1.6-9.4,3.8-12.4l4,2.9c0.3-0.4,3.4-4.1,7.5-5.4h0.1
		l-2.9-7.8c6.2-1.8,10.7-1.8,15.7,0.1c0.2,0,0.3,0.1,0.4,0.2l0.1,0.1l-0.9,2.3c0.2,0.1,3.5,1.6,4.9,3l1.1-1.5
		c4.1,2.5,7.1,6.5,8.3,11.2l-1.7,0.6v0C103.3,301.3,103.3,305.9,102,310.2C102,310.2,102,310.2,102,310.2z"/>
	<path class="st1" d="M82.3,295.9c-2.1,0-4,1.3-4.8,3.2c-0.8,1.9-0.4,4.2,1.1,5.7c1.5,1.5,3.7,1.9,5.6,1.1c1.9-0.8,3.2-2.7,3.2-4.8
		C87.4,298.3,85.1,296,82.3,295.9L82.3,295.9z"/>
</g>
</svg>
