<svg id="Layer_1" data-name="Layer 1" xmlns="http://www.w3.org/2000/svg" xmlns:xlink="http://www.w3.org/1999/xlink" viewBox="0 0 2295.77 350.04"><defs><linearGradient id="linear-gradient" x1="101.98" y1="143.87" x2="101.98" y2="288.77" gradientUnits="userSpaceOnUse"><stop offset=".09" stop-color="#4a3a85"/><stop offset=".49" stop-color="#694ea0"/><stop offset=".61" stop-color="#6c55a4"/><stop offset=".93" stop-color="#7365ad"/></linearGradient><linearGradient id="linear-gradient-2" x1="159.53" y1="332.25" x2="159.53" y2=".26" gradientUnits="userSpaceOnUse"><stop offset=".05" stop-color="#4a3a85"/><stop offset=".32" stop-color="#694ea0"/><stop offset=".43" stop-color="#6c55a4"/><stop offset=".73" stop-color="#7365ad"/></linearGradient><linearGradient id="linear-gradient-3" x1="34.63" y1="332.16" x2="34.63" y2="44.77" xlink:href="#linear-gradient-2"/><style>.cls-1{fill:#2d3a58}.cls-2{fill:#5b439b}</style></defs><path class="cls-1" d="M304.43 290.79V102.3H333v80.78h91.29V102.3h28.51v188.49h-28.54v-84.28H333v84.28zM553.78 294q-19.66 0-34.87-8.76a62.06 62.06 0 01-23.83-24.37q-8.62-15.61-8.62-36.35 0-21 8.48-36.89a61.8 61.8 0 0123.7-24.77q15.21-8.86 35.41-8.86 19.65 0 34.2 8.75A62 62 0 01610.87 186a65 65 0 018.13 32.09c0 1.8-.05 3.73-.14 5.79s-.23 4.35-.4 6.87H514.47q1.34 19.38 12.79 29.48a38.85 38.85 0 0026.52 10.1q12.12 0 20.33-5.52a33.44 33.44 0 0012.25-14.95h28.55a60.69 60.69 0 01-21.41 31.51Q577.48 294 553.78 294zm0-116.6a40.43 40.43 0 00-25.31 8.48q-11 8.49-13.47 25.45h75.4q-.81-15.62-11-24.78t-25.62-9.12zM703.23 294q-25.32 0-41.74-12.39a46.42 46.42 0 01-18.85-32.85h28.81a28.53 28.53 0 0010.24 15.75q8.07 6.6 21.27 6.6 12.93 0 18.85-5.39t5.92-12.39q0-10.23-8.21-13.86t-22.75-6.6a173.47 173.47 0 01-22.49-6.46A49.8 49.8 0 01655.7 215q-7.41-7.4-7.4-20.06 0-17.51 13.46-29.22t37.7-11.72q22.35 0 36.22 10.77T752 195.2h-27.5a19.77 19.77 0 00-7.94-13.46q-6.6-4.85-17.64-4.85-10.77 0-16.69 4.44a13.68 13.68 0 00-5.93 11.45q0 7 8.21 11t21.68 7.27A232.65 232.65 0 01731.1 218a44.12 44.12 0 0118.45 11.45q7 7.54 7 22.08.26 18.32-14.14 30.43T703.23 294zM840 290.79q-19.66 0-31.24-9.56t-11.57-34.06v-66h-22.87v-24h22.89l3.5-33.93h25v33.93h37.7v24h-37.7v66q0 11 4.71 15.22t16.29 4.17h15.39v24.23zM910.3 131.92a18.6 18.6 0 01-13.33-5 17.55 17.55 0 010-25 20.3 20.3 0 0126.66 0 17.55 17.55 0 010 25 18.59 18.59 0 01-13.33 5zM896 290.79V157.23h28.54v133.56zM1008.85 294q-17 0-28-5.66t-16.43-14.94a39.84 39.84 0 01-5.42-20.3q0-19.4 15.08-30.7t43.08-11.31h35v-2.43q0-15.6-8.48-23.42t-22-7.81a36.46 36.46 0 00-20.6 5.79q-8.76 5.79-10.64 17.1H962a44.85 44.85 0 019.83-24.91 54.9 54.9 0 0121.54-15.89 72.92 72.92 0 0128.68-5.52q28 0 43.35 14.68t15.35 40v82.13H1056l-2.43-22.88a50.77 50.77 0 01-16.42 18.58q-10.79 7.49-28.3 7.49zm5.66-23.16q11.57 0 19.52-5.52a37.36 37.36 0 0012.39-14.68 59 59 0 005.52-20.19h-31.78q-17 0-24.1 5.92a18.47 18.47 0 00-7.13 14.81q0 9.16 6.86 14.41t18.72 5.28z"/><path class="cls-2" d="M1129.54 290.79L1199 102.3h24l69.21 188.49h-24L1251 242.32h-80.25l-17.5 48.47zm47.93-66.79h66.78l-33.39-93.17zM1373 294q-19.12 0-34.34-8.76a62.86 62.86 0 01-24-24.5q-8.76-15.75-8.75-36.76t8.75-36.75a63 63 0 0124-24.51Q1353.84 154 1373 154q23.68 0 40 12.39t20.6 33.12h-23.2a29.68 29.68 0 00-13.2-19.25q-10.5-6.87-24.5-6.87a41.79 41.79 0 00-37.43 22.61q-6.19 11.31-6.2 28t6.2 28a43.16 43.16 0 0016.15 17.1 41.67 41.67 0 0021.28 5.79q14 0 24.5-6.87a29.82 29.82 0 0013.2-19.52h23.15a53.47 53.47 0 01-20.46 32.85Q1396.67 294 1373 294zM1509.49 294q-16.7 0-27.74-5.66t-16.42-15.08a40.43 40.43 0 01-5.39-20.46q0-20.46 15.62-31.51t42.55-11h36.08v-1.62q0-17.49-9.16-26.52t-24.5-9q-13.2 0-22.76 6.6t-12 19.25h-23.16q1.35-14.53 9.83-24.5a55 55 0 0121.14-15.22 69.57 69.57 0 0126.93-5.25q28 0 42.14 14.95t14.14 39.71v82.13h-20.2l-1.34-24a52.92 52.92 0 01-16.56 19.25q-10.9 7.93-29.2 7.93zm3.5-19.12q12.93 0 22.21-6.74a42.86 42.86 0 0014.14-17.5 54.53 54.53 0 004.85-22.62v-.27H1520q-19.93 0-28.14 6.87a21.4 21.4 0 00-8.21 17.1q0 10.5 7.67 16.83t21.68 6.36zM1671.32 294q-19.93 0-34.87-9.16a62.31 62.31 0 01-23.16-25q-8.22-15.88-8.21-36.09t8.35-35.94a62.84 62.84 0 0123.15-24.81q14.81-9 35-9 16.42 0 29.08 6.73a48.52 48.52 0 0119.66 18.85V96.91H1743v193.88h-20.47l-2.15-22.08q-6.46 9.71-18.58 17.51t-30.48 7.78zm2.42-19.66a44.85 44.85 0 0023.84-6.33 43.35 43.35 0 0016.15-17.64q5.79-11.31 5.79-26.39t-5.79-26.39a43.33 43.33 0 00-16.15-17.59 44.85 44.85 0 00-23.84-6.33 44.31 44.31 0 00-23.56 6.33 43.19 43.19 0 00-16.18 17.62q-5.8 11.31-5.79 26.39t5.79 26.39a43.22 43.22 0 0016.18 17.6 44.31 44.31 0 0023.56 6.37zM1839.89 294q-19.12 0-33.93-8.76a62.06 62.06 0 01-23.3-24.37q-8.48-15.61-8.48-36.89 0-21 8.35-36.75a60.74 60.74 0 0123.29-24.51q15-8.75 34.6-8.75 19.39 0 33.53 8.75a59.38 59.38 0 0121.68 23 64.8 64.8 0 017.54 30.69c0 2-.05 3.95-.14 5.93s-.13 4.22-.13 6.73h-106.37q.81 15.35 7.14 25.45a42 42 0 0036.22 20.33q14 0 23.42-6.47a37 37 0 0013.74-17.5h22.35a60.31 60.31 0 01-20.6 30.83Q1863.58 294 1839.89 294zm0-120.91a45.18 45.18 0 00-28.68 9.83q-12.53 9.83-14.41 28.68h84q-.81-18-12.39-28.28t-28.52-10.2zM1933.05 290.79V157.23h20.47l1.61 19.39a45.2 45.2 0 0117.24-16.69 49.38 49.38 0 0124.23-5.93q15.89 0 27.33 6.46t17.64 19.66a51.14 51.14 0 0119.25-19.12 52.65 52.65 0 0126.53-7q24 0 38.24 14.41t14.27 44.29v78.09h-22.35v-75.66q0-20.73-8.35-31.24t-24-10.5q-16.16 0-26.79 12.52t-10.64 35.68v69.2h-22.62v-75.66q0-20.73-8.34-31.24t-24-10.5q-15.88 0-26.52 12.52t-10.64 35.68v69.2zM2184.55 350l33.13-72.17h-7.81l-53-120.64h24.5l44.16 103.94 46.86-103.94h23.43L2208.25 350z"/><path d="M107.68 166.28l-.09.1-.12.14a3.11 3.11 0 01.4-.41.36.36 0 01.07-.1z" fill="none"/><path d="M147 216.46c-9.6-40.52-26.55-82.9-33.65-104.53l-.21-.63c0-.12-.07-.23-.11-.34 2.4 13.27 4.08 21.63 4.09 32.73 0 8.32-2.32 16.6-7.76 22.63C102.9 173.49 88 176.9 76.17 170c-13.54-7.87-11.06-34.55-9.81-44.18-.82 4.38-1.92 9.33-3.4 15.46-5 20.76-11.39 35.43-12.32 68.85-2.12 76.84 15.58 85.11 16 119.32v.37c.61-12.52.65-19.24 1.63-31.51s2.35-21.23 8.95-31.67 17.78-17.13 30.24-17.2c14.26-.07 24.85 6.9 30.91 16.08s8.77 20.87 9.71 33c1.09 14.08 1.32 29.9 1.34 31.13v-.18c.68-5.37 10.14-60.05-2.42-113.01zm-63 37a2.83 2.83 0 00-.3.3l.09-.1.24-.25a.86.86 0 00-.03.04z" fill="url(#linear-gradient)"/><path d="M215.24 267.26c-1.09 22.46-4.88 55.23-14.31 58.42-15.13 5.12-33.51 6-49.06 6.56a2.51 2.51 0 01-2.37-1.87 2.61 2.61 0 01-.06-.27v-.4-.18c.67-5.41 10.13-60.09-2.41-113-9.6-40.52-26.55-82.9-33.65-104.53l-.21-.63c0-.12-.07-.23-.11-.34-.43-1.33-.82-2.57-1.16-3.73a203 203 0 01-8.06-41.79C102.17 45 110.94 14 125.24.92a1.71 1.71 0 013 1.13c1.19 16.06 5.81 35.93 22 71.65 15.76 34.7 32.13 57.13 46.09 92.88 13.11 33.42 20.34 71.24 18.91 100.68z" fill="url(#linear-gradient-2)"/><path d="M50.64 210.17c-2.12 76.84 15.58 85.11 16 119.32v.37a2.54 2.54 0 01-2.58 2.3c-19.54-.7-36.83-3.43-46.63-7.45C6.82 320.34-.24 272.38 0 245.31s10-67.23 20-92.6c8.75-22.15 24.37-65.65 27-74.88s5-20.25 7.07-31.77a1.34 1.34 0 012.44-.71c8.8 12.3 13.3 34 12.69 50.38-.47 12.46-.89 19.69-2.84 30.13-.82 4.38-1.92 9.33-3.4 15.46-4.96 20.76-11.39 35.43-12.32 68.85z" fill="url(#linear-gradient-3)"/></svg>