<svg width="513" height="71" xmlns="http://www.w3.org/2000/svg"><g fill="none" fill-rule="evenodd"><path d="M102.5 66.1c-7.2 0-13.8-.8-19.6-6.6l7.5-7.5c3.8 3.8 8.7 4.3 12.3 4.3 4 0 8.1-1.3 8.1-4.8 0-2.3-1.2-3.9-4.9-4.2l-7.2-.7c-8.3-.8-13.4-4.4-13.4-12.9 0-9.5 8.4-14.7 17.8-14.7 7.2 0 13.2 1.2 17.6 5.4l-7.1 7.2c-2.7-2.4-6.7-3.1-10.7-3.1-4.6 0-6.5 2.1-6.5 4.4 0 1.7.7 3.6 4.8 4l7.2.7c9.1.9 13.7 5.7 13.7 13.5 0 10.2-8.7 15-19.6 15zM142.1 65.6c-9.4 0-13.3-6.6-13.3-13.2V29.6h-4.9v-8.7h4.9V7.3h11.5v13.6h8.1v8.7h-8.1v22.1c0 2.6 1.2 4.2 4 4.2h4.2v9.7h-6.4zM153.5 11.7V2.3h11.8v9.4h-11.8zm.2 53.9v-46h11.5v46h-11.5zM191.1 66.1c-9.2 0-20.6-4.9-20.6-23.6 0-18.6 11.4-23.5 20.6-23.5 6.4 0 11.1 1.9 15.2 6.2l-7.8 7.8c-2.4-2.6-4.4-3.6-7.4-3.6-2.7 0-4.9 1-6.5 3-1.8 2.2-2.6 5.3-2.6 10.2 0 4.9.8 8 2.6 10.3 1.7 2 3.8 3 6.5 3 3 0 5-1.1 7.4-3.6l7.8 7.7c-4.1 4.1-8.8 6.1-15.2 6.1zM238 65.6l-11.3-19.2-4.9 5.5v13.7h-11.5V2.7h11.5v35.7l15.3-18.8H251l-16.4 18.6 17.7 27.5H238z" fill="#4E2817" fill-rule="nonzero"/><path d="M261.8 46.1c0 5.9 3.6 10.2 10.1 10.2 5 0 7.5-1.4 10.4-4.3l7 6.8c-4.7 4.7-9.2 7.2-17.5 7.2-10.9 0-21.3-4.9-21.3-23.6 0-15 8.1-23.5 20.1-23.5 12.8 0 20.1 9.4 20.1 22V46h-28.9v.1zm16.5-12.8c-1.2-2.7-3.8-4.8-7.7-4.8-3.9 0-6.5 2-7.7 4.8-.7 1.7-1 2.9-1.1 4.9h17.5c-.1-2-.3-3.2-1-4.9zM321.1 32.1c-1.8-1.8-3.3-2.7-6.1-2.7-3.5 0-7.4 2.7-7.4 8.5v27.7h-11.5v-46h11.2V24c2.2-2.7 6.6-4.9 11.6-4.9 4.5 0 7.7 1.1 10.9 4.3l-8.7 8.7z" fill="#4E2817" fill-rule="nonzero"/><path d="M47.5 70.7c-.7.3-1.6.2-2.5.3-.8 0-1.9 0-2.4-.4-.3-.2-.3-.7-.3-1 0-.3.1-.8.1-1.1.1-.4.2-1 0-1.3-.2-.3-.9-.2-1.3-.4s-.5-.8-.6-1.4c0-.2-.2-.4-.2-.5-.1-.9.2-2.2.4-3.1.2-1 .5-1.9.7-2.9.3-1.4.3-3 .2-4.5 0-.8-.2-1.4 0-2 .1-.6.4-1.1.5-1.7v-.6c0-.2.1-.3.1-.5 0-.4-.1-.9-.1-1.4-.1-1.3 0-3.2.1-4.3 0-.4.2-.8-.1-1-1.4 0-2.6.2-3.9.4-3.4.4-7.8.5-11.1-.2-.3-.1-.6-.1-.9-.1-2.4-.5-4.5-1.6-6.2-2.9-.3-.2-.6-.4-.9-.7-.3-.2-.6-.5-.9-.7-1.3-.6-3.1.1-3.7 1-.2.3-.4.8-.6 1.2-.2.4-.4.8-.5 1.2-.9 2-1.9 4-2.8 6-.5 1.2-1.1 2.5-1.5 3.8-.8 2.8-.1 6.5.6 9.2.1.2.2.5.3.8.2.6.6 1.5 1.1 1.9.3.2.7.4 1 .6.4.3.6.9.9 1.5.1.2.3.5.4.8.3.6.5 1.1-.2 1.5-.5.3-1.3.3-2 .4-.3.1-.2.5-.4.7-.1.1-.6.3-.8.4-.9.3-2.5.3-3.2 0-.4-.1-.8-.4-.9-.7-.2-.6.3-1.3-.1-1.7-.2-.2-.6-.2-.9-.3-.5-.2-.9-.7-1.2-1.2-.5-1.4-.2-3.5-.3-5.2 0-.5-.1-1-.1-1.6 0-1-.3-2-.4-3-.1-.5-.2-.9-.3-1.3-.2-.7-.3-1.5-.5-2.2-.2-.8-.2-1.6 0-2.2.1-.2.3-.4.4-.6.2-.4.2-.8.2-1.2-.1-.2-.6 0-.7-.2-.3-2.2-.6-4.3-.8-6.6-.1-.8-.1-1.5-.1-2.3-.1-1.5 0-3.1-.2-4.6l-.3-2.1c-.3-2-.8-4.5-.4-6.6.3-1.3.7-2.4 1.5-3.4.5-.7 1.1-1.3 1.7-2 .6-.6 1.3-1.2 2-1.7.5-.3 1-.7 1.5-1 1.1-.5 2.6-1 4.2-1.1 1.6-.1 3.4-.1 4.9.2 1.5.3 3 .5 4.5.8 1.4.3 2.8.7 4.2 1 .2 0 .3.2.5.2.4.1.9.1 1.4.3 1.3.3 2.9.5 4.5.5 1.7 0 3.2 0 4.6-.4.2-.1.4-.2.6-.2.2-.1.5-.1.7-.1.1 0 .3-.2.4-.3.8-.4 1.5-.8 2.2-1.3.6-.4 1-.7 1.8-1 .3-.1.7-.3 1-.4.7-.2 1.5-.4 2-.8.9-.5 1.5-1.3 2.2-2 .7-.6 1.5-1.3 2.3-1.9 1.6-1.3 3.2-2.4 4.7-3.6.8-.6 1.6-1.2 2.5-1.7 1.7-1 3.5-2.1 6-2.3 1-.1 2-.1 3 0 .3 0 .6.2.9.1.3-.1.5-.5.6-.8.4-.7.6-1.1 1-1.9.2-.5.1-1 .6-1s.4 1.3.4 1.8c0 .6-.1 1.4 0 1.8.1.3.5.7.9.7.3 0 .5-.2.7-.4.3-.2.5-.2.7-.4.4-.3.9-.8 1.3-1.2.3-.3.9-1.2 1.4-1.1 1 .1 0 1.6-.2 2-.5 1.1-1 2-1.6 3-.2.4-.8 1-.8 1.5 0 .3.3.5.4.9.1.2.1.3.2.5.3.8.6 1.9.9 2.8.2.8.4 1.6.7 2.3.3.7.7 1.4 1 2.2.1.2.1.4.2.6.6 1.6 1.2 3.4 2 5 .3.6.7 1.4.7 2.3 0 1-.5 1.5-1 2.3-.2.4-.6 1-1 1.1-.3.1-.6 0-.9 0-.4.1-.7.3-1 .3-.9.1-1.8-.6-2-1.3-.1-.2 0-.5-.1-.8-.2-1.1-.8-1.6-1.5-2.4-.5-.5-.9-.8-1.5-1.1-.9-.5-1.8-.7-2.8-1.2-.3-.2-.8-.4-1.1-.3-.5.1-1 .9-1.4 1.4-2.4 3.2-4.6 6.5-6.9 9.6-1.6 2.1-3.2 4.2-4.5 6.5-.3.6-.5 1.3-.8 2-.2.7-.4 1.4-.6 2.2-.9 2.6-1.2 5.8-2 8.5-.1.3-.1.6-.2.9-.4 1.4-.8 3-1.2 4.5-.3 1.1-.4 2.6-.5 4 0 1.4-.1 3.3.4 4.1.3.5 1.2.6 1.5 1.1.2.3.4 1 .7 1.4.2.3.7.9.6 1.4 0 .3-.3.6-.6.7-.3.1-.7.1-1 .2 0 .4.1.8-.2 1z" fill="#4E2817"/><path d="M381.4 19c-5.7 0-9.9 1.8-13.8 5.8-2.9-4-7.1-5.8-12.2-5.8-4.2 0-8.5 1.7-11.5 4.8v-4.2h-11.2v46h11.5V37.8c0-6.3 4.1-8.4 7.7-8.4 3.6 0 7.6 2.1 7.6 8.4v27.8H371V37.5c0-6 4.2-8.1 7.7-8.1 3.6 0 7.6 2.1 7.6 8.4v27.8h11.5V36.2c0-5-1.3-9.4-5-13.1-2.7-2.6-6.8-4.1-11.4-4.1zM431.3 47.4c0 6.3-4.1 8.4-7.7 8.4-3.6 0-7.6-2.1-7.6-8.4V19.5h-11.5V49c0 5 1 9.4 4.7 13.1 2.6 2.6 6.3 4.1 10.9 4.1 4.2 0 8.5-1.6 11.5-4.8v4.2h11.2v-46h-11.5v27.8zM461.6 51.7v-49h-11.5v49.7c0 6.5 4 13.2 13.4 13.2h6.5v-9.7h-4.4c-2.9 0-4-1.4-4-4.2zM512.2 41c0-12.6-7.2-22-20.1-22-11.9 0-20.1 8.5-20.1 23.5 0 18.6 10.4 23.6 21.3 23.6 8.3 0 12.8-2.6 17.5-7.2l-7-6.8c-2.9 2.9-5.4 4.3-10.4 4.3-6.5 0-10.1-4.3-10.1-10.2h28.8V41h.1zm-28.8-2.7c.1-2 .4-3.3 1.1-4.9 1.2-2.7 3.8-4.8 7.7-4.8 3.9 0 6.4 2 7.7 4.8.7 1.7 1 2.9 1.1 4.9h-17.6z" fill="#F26922" fill-rule="nonzero"/></g></svg>