<svg xmlns="http://www.w3.org/2000/svg" style="isolation:isolate" viewBox="0 0 567 235" width="756" height="235pt"><defs><clipPath id="a"><path d="M0 0h567v235H0z"/></clipPath></defs><g clip-path="url(#a)"><clipPath id="b"><path fill="#FFF" d="M-17 0h600v302.941H-17z"/></clipPath><g clip-path="url(#b)"><clipPath id="c"><path fill="#FFF" d="M219.525 83.144h344.243v68.475H219.525z"/></clipPath><g clip-path="url(#c)"><path d="M247.957 116.495v13.774h-7.488v-16.032q0-2.971-.994-4.456-.994-1.486-3.13-1.486-2.873 0-4.174 2.112-1.302 2.111-1.302 6.948v12.914h-7.488V102.82h5.721l1.006 3.511h.418q1.105-1.89 3.191-2.958 2.087-1.068 4.788-1.068 6.163 0 8.348 4.026h.663q1.104-1.915 3.253-2.971 2.148-1.055 4.849-1.055 4.664 0 7.058 2.393 2.394 2.394 2.394 7.673v17.898h-7.513v-16.032q0-2.971-.994-4.456-.994-1.486-3.13-1.486-2.75 0-4.113 1.964-1.363 1.964-1.363 6.236zm47.459 13.774h-5.23l-1.448-3.732h-.196q-1.891 2.382-3.892 3.302-2.001.921-5.217.921-3.953 0-6.224-2.259-2.271-2.259-2.271-6.432 0-4.371 3.057-6.445 3.056-2.075 9.219-2.296l4.763-.147v-1.203q0-4.174-4.272-4.174-3.29 0-7.734 1.989l-2.48-5.058q4.739-2.48 10.508-2.48 5.525 0 8.471 2.406 2.946 2.407 2.946 7.317v18.291zm-7.439-10.459v-2.259l-2.897.098q-3.266.099-4.862 1.179-1.595 1.08-1.595 3.29 0 3.167 3.633 3.167 2.603 0 4.162-1.498 1.559-1.497 1.559-3.977zm22.244-4.469h.098l3.265-4.173 7.685-8.348h8.446l-10.901 11.908 11.564 15.541h-8.643l-7.905-11.122-3.216 2.578v8.544h-7.489V92.066h7.489v17.039l-.393 6.236zm35.452-7.709q-2.381 0-3.731 1.51-1.351 1.51-1.547 4.284h10.508q-.049-2.774-1.449-4.284-1.399-1.51-3.781-1.51zm1.056 23.128q-6.629 0-10.361-3.658-3.732-3.658-3.732-10.361 0-6.899 3.45-10.668 3.449-3.768 9.538-3.768 5.819 0 9.06 3.314 3.241 3.314 3.241 9.158v3.633h-17.702q.123 3.192 1.89 4.984 1.768 1.793 4.96 1.793 2.48 0 4.689-.516 2.21-.515 4.616-1.645v5.794q-1.964.982-4.198 1.461-2.235.479-5.451.479z" fill="#7963AB"/><path d="M383.172 122.118q0 4.223-2.934 6.432-2.934 2.21-8.777 2.21-2.996 0-5.107-.405-2.112-.405-3.953-1.191v-6.187q2.087.982 4.702 1.645 2.614.663 4.603.663 4.076 0 4.076-2.357 0-.884-.54-1.436-.541-.553-1.866-1.252-1.326-.7-3.536-1.633-3.167-1.326-4.652-2.455-1.486-1.13-2.161-2.591-.675-1.46-.675-3.596 0-3.659 2.836-5.66 2.835-2 8.04-2 4.96 0 9.649 2.16l-2.259 5.401q-2.062-.883-3.854-1.448-1.792-.565-3.658-.565-3.315 0-3.315 1.792 0 1.007 1.068 1.744 1.068.736 4.677 2.185 3.217 1.301 4.714 2.43 1.498 1.13 2.21 2.603.712 1.473.712 3.511zm20.918 8.642q-4.837 0-7.587-3.511h-.392q.392 3.437.392 3.977v11.122h-7.488V102.82h6.089l1.056 3.56h.343q2.627-4.075 7.783-4.075 4.862 0 7.611 3.756 2.75 3.756 2.75 10.434 0 4.395-1.289 7.636-1.289 3.241-3.67 4.935-2.382 1.694-5.598 1.694zm-2.21-22.465q-2.774 0-4.051 1.706-1.276 1.707-1.326 5.635v.81q0 4.42 1.314 6.335 1.313 1.915 4.161 1.915 5.034 0 5.034-8.299 0-4.051-1.24-6.076-1.24-2.026-3.892-2.026zm34.029 22.465q-4.837 0-7.587-3.511h-.392q.392 3.437.392 3.977v11.122h-7.488V102.82h6.089l1.056 3.56h.343q2.628-4.075 7.783-4.075 4.862 0 7.611 3.756 2.75 3.756 2.75 10.434 0 4.395-1.289 7.636-1.289 3.241-3.67 4.935-2.382 1.694-5.598 1.694zm-2.21-22.465q-2.774 0-4.051 1.706-1.276 1.707-1.326 5.635v.81q0 4.42 1.314 6.335t4.162 1.915q5.033 0 5.033-8.299 0-4.051-1.24-6.076-1.24-2.026-3.892-2.026z" fill="#F15F5E"/><path d="M475.835 123.886v6.383h-25.092v-5.279l9.011-9.108q4.002-4.101 5.229-5.684 1.228-1.584 1.768-2.934t.54-2.799q0-2.16-1.191-3.216-1.19-1.056-3.179-1.056-2.087 0-4.051.958-1.964.957-4.1 2.725l-4.125-4.886q2.652-2.259 4.395-3.192 1.743-.933 3.805-1.436 2.063-.503 4.616-.503 3.364 0 5.942 1.227 2.577 1.228 4.001 3.438 1.424 2.209 1.424 5.057 0 2.48-.871 4.653-.872 2.173-2.701 4.456-1.829 2.283-6.445 6.506l-4.615 4.346v.344h15.639zm28.505-11.564q0 9.403-3.082 13.92-3.081 4.518-9.489 4.518-6.211 0-9.366-4.665-3.155-4.665-3.155-13.773 0-9.502 3.069-14.007 3.069-4.505 9.452-4.505 6.212 0 9.391 4.714 3.18 4.713 3.18 13.798zm-17.555 0q0 6.604 1.142 9.464 1.141 2.861 3.842 2.861 2.652 0 3.83-2.897 1.179-2.898 1.179-9.428 0-6.605-1.191-9.49-1.191-2.884-3.818-2.884-2.676 0-3.83 2.884-1.154 2.885-1.154 9.49zm46.452 11.564v6.383h-25.092v-5.279l9.011-9.108q4.002-4.101 5.229-5.684 1.228-1.584 1.768-2.934t.54-2.799q0-2.16-1.191-3.216-1.19-1.056-3.179-1.056-2.087 0-4.051.958-1.964.957-4.1 2.725l-4.125-4.886q2.652-2.259 4.395-3.192 1.743-.933 3.805-1.436 2.063-.503 4.616-.503 3.364 0 5.942 1.227 2.577 1.228 4.001 3.438 1.424 2.209 1.424 5.057 0 2.48-.871 4.653-.872 2.173-2.701 4.456-1.829 2.283-6.445 6.506l-4.615 4.346v.344h15.639zm28.505-11.564q0 9.403-3.082 13.92-3.081 4.518-9.489 4.518-6.211 0-9.366-4.665-3.155-4.665-3.155-13.773 0-9.502 3.069-14.007 3.069-4.505 9.452-4.505 6.212 0 9.391 4.714 3.18 4.713 3.18 13.798zm-17.555 0q0 6.604 1.142 9.464 1.141 2.861 3.842 2.861 2.652 0 3.83-2.897 1.179-2.898 1.179-9.428 0-6.605-1.191-9.49-1.191-2.884-3.818-2.884-2.676 0-3.83 2.884-1.154 2.885-1.154 9.49z" fill="#FFF"/></g><clipPath id="d"><path d="M2.213-54h297.753v290.164H2.213V-54" fill="#FFF"/></clipPath><g clip-path="url(#d)"><clipPath id="e"><path d="M-2.493 3.177h205.721v230.528H-2.493V3.177z" fill="#FFF"/></clipPath><g clip-path="url(#e)"><path d="M192.267 116.664c-.577.655.577 4.51-.026 5.166-25.176 25.176-47.625 50.798-72.88 75.974-6.084 6.085-21.058 11.172-28.165 7.422-1.181-.577-6.557.865-7.501 0-1.573-1.574-8.13-12.929-9.703-14.503-23.776-23.645-35.377-47.058-59.007-70.729-.167-.167-.881-.252-1.049-.419-.813-.813-1.101-1.867-1.678-2.885-.085-.406.127-.813.367-1.416 1.14-2.867 3.515-9.6 4.144-10.228 25.018-25.019 47.677-49.618 72.565-74.742 7.605-7.683 18.147-7.92 25.884 0 4.448-16.025 29.574 16.995 74.925 83.187.76.708 1.416 2.36 2.124 3.173z" fill="#782E7A"/><path d="M194.523 88.682c8.024 7.972 8.024 17.754.104 25.779-.708.708-1.285 1.468-1.862 2.177-.183 0-.34.052-.524.052-.708-.813-1.338-1.652-2.098-2.413-25.019-25.018-50.142-49.854-74.925-75.135-7.789-7.92-18.279-7.684-25.884 0-24.888 25.15-49.959 50.038-74.978 75.057-.761.76-1.416 1.599-2.15 2.439-.21-.027-.184.052-.368.026-.524-1.311-1.783-2.177-2.701-3.173-6.923-7.501-6.923-16.653.184-24.023 2.412-2.517 4.93-4.982 7.448-7.448A94229.563 94229.563 0 0189.57 9.298c6.503-6.504 13.873-7.841 20.901-3.934 1.757.944 3.095 2.334 4.511 3.698" fill="#7862AD"/><path d="M115.008 223.636c-8.025 8.025-17.387 8.025-25.412.052L10.527 144.62c-8.733-8.733-8.785-17.624-.105-26.409.472-.472.892-.997 1.338-1.521a.734.734 0 00.472 0c.76.892 1.468 1.757 2.281 2.57 23.97 23.839 47.914 47.625 71.883 71.463 1.574 1.574 3.174 3.174 4.8 4.747.891.892 1.809 1.757 2.989 2.334 7.081 3.803 14.634 2.518 20.744-3.566 25.176-25.176 50.431-50.379 75.634-75.555a18.292 18.292 0 001.704-1.993c.184 0 .341-.052.525-.052.944.996 1.862 1.993 2.806 2.937 6.74 6.976 6.792 16.626-.053 23.497" fill="#F15D5D"/><path d="M159.036 252.626h1.841-1.841z" fill="none"/></g></g><linearGradient id="f" x1=".5" y1="0" x2=".5" y2="1" gradientTransform="matrix(.083 0 0 .093 537.953 148.954)" gradientUnits="userSpaceOnUse"><stop offset="0%" stop-color="#1b1464"/><stop offset="15%" stop-color="#1d1569"/><stop offset="31%" stop-color="#241876"/><stop offset="48%" stop-color="#301c8c"/><stop offset="66%" stop-color="#4023ac"/><stop offset="83%" stop-color="#542bd3"/><stop offset="100%" stop-color="#6a34ff"/></linearGradient><path d="M538.014 148.983c.006-.011.014-.02.022-.029-.028.031-.057.061-.083.093a.53.53 0 01.061-.064z" fill="url(#f)"/><linearGradient id="g" x1="0" y1="1" x2="0" y2="0" gradientTransform="matrix(0 0 0 .012 554.737 165.382)" gradientUnits="userSpaceOnUse"><stop offset="13%" stop-color="#5223bc"/><stop offset="32%" stop-color="#693ccd"/><stop offset="56%" stop-color="#7a57e9"/><stop offset="73%" stop-color="#8367f9"/></linearGradient><path d="M554.737 165.393v-.008-.003.011z" fill="url(#g)"/><path d="M453.079 161.246v-10.059h1.525v4.311h4.871v-4.311h1.521v10.059h-1.522v-4.497h-4.87v4.497h-1.525zM466.385 161.418q-1.049 0-1.861-.467a3.319 3.319 0 01-1.272-1.3q-.459-.834-.459-1.94 0-1.12.452-1.968a3.307 3.307 0 011.265-1.323q.811-.473 1.889-.473 1.049 0 1.825.467a3.3 3.3 0 011.207 1.242c.288.523.437 1.111.431 1.708 0 .096-.002.199-.007.309-.005.11-.013.232-.022.366h-5.546q.072 1.036.683 1.574c.387.351.892.544 1.415.538q.646 0 1.085-.294c.291-.196.519-.473.653-.797h1.524a3.236 3.236 0 01-1.143 1.68q-.855.678-2.119.678zm0-6.222a2.163 2.163 0 00-1.351.453q-.587.453-.719 1.358h4.024q-.043-.834-.587-1.322-.544-.488-1.367-.489zM474.359 161.418q-1.351 0-2.227-.661a2.479 2.479 0 01-1.006-1.753h1.538c.081.334.274.63.546.841q.431.353 1.135.352.69 0 1.006-.287.316-.287.316-.661 0-.546-.438-.741-.439-.194-1.214-.352a9.036 9.036 0 01-1.2-.344 2.65 2.65 0 01-.992-.611q-.395-.395-.395-1.07 0-.934.719-1.559.718-.626 2.011-.625 1.193 0 1.933.574.74.575.871 1.624h-1.468a1.056 1.056 0 00-.423-.72q-.352-.259-.942-.259-.574 0-.89.238a.73.73 0 00-.317.61q0 .374.439.587.438.214 1.156.388c.45.098.894.22 1.33.367.373.118.712.328.984.61q.374.403.374 1.178.013.978-.755 1.624-.768.646-2.091.65zM481.657 161.246q-1.049 0-1.667-.51-.617-.51-.617-1.818v-3.522h-1.22v-1.28h1.221l.187-1.811h1.334v1.811h2.012v1.28h-2.012v3.522q0 .587.251.812.252.224.869.222h.822v1.294h-1.18zM485.409 152.768a.989.989 0 01-.712-.266.94.94 0 010-1.334 1.084 1.084 0 011.423 0 .938.938 0 010 1.334.985.985 0 01-.711.266zm-.763 8.478v-7.127h1.522v7.127h-1.522zM490.667 161.418q-.907 0-1.494-.301-.587-.302-.877-.801a2.13 2.13 0 01-.289-1.082q0-1.034.805-1.638.805-.604 2.299-.604h1.867v-.126q0-.833-.452-1.25-.453-.417-1.174-.417a1.943 1.943 0 00-1.099.309q-.468.31-.568.912h-1.518a2.4 2.4 0 01.525-1.329 2.922 2.922 0 011.149-.847 3.883 3.883 0 011.531-.295q1.494 0 2.313.783.819.783.819 2.135v4.382h-1.321l-.129-1.221a2.716 2.716 0 01-.877.991q-.575.399-1.51.399zm.302-1.236q.618 0 1.042-.294c.284-.198.512-.468.661-.781.162-.339.261-.704.295-1.078h-1.696q-.907 0-1.286.317a.982.982 0 00-.381.79q0 .488.366.768t.999.278zM499.747 161.246l3.707-10.059h1.666l3.679 10.059h-1.609l-.863-2.455h-4.108l-.863 2.455h-1.609zm2.902-3.664h3.248l-1.624-4.584-1.624 4.584zM513.169 161.418q-1.049 0-1.875-.474a3.37 3.37 0 01-1.293-1.315q-.468-.841-.468-1.947 0-1.105.468-1.947c.3-.549.748-1.005 1.293-1.315q.826-.473 1.875-.473 1.322 0 2.219.689.898.689 1.157 1.868h-1.595a1.502 1.502 0 00-.632-.919 2.11 2.11 0 00-2.184-.05 2.041 2.041 0 00-.761.819q-.288.539-.287 1.329 0 .791.287 1.33c.173.339.437.625.761.826.311.19.67.29 1.035.287.408.01.809-.106 1.149-.331.324-.217.551-.552.632-.933h1.595a3.08 3.08 0 01-1.149 1.853q-.905.703-2.227.703zM520.61 161.418q-.907 0-1.494-.301-.587-.302-.876-.801a2.12 2.12 0 01-.288-1.085q0-1.034.805-1.638.805-.604 2.299-.603h1.867v-.124q0-.833-.452-1.25-.453-.417-1.174-.417a1.943 1.943 0 00-1.099.309q-.468.31-.568.912h-1.523a2.4 2.4 0 01.525-1.329 2.922 2.922 0 011.149-.847 3.9 3.9 0 011.53-.295q1.495 0 2.314.783t.819 2.135v4.382h-1.322l-.13-1.221a2.704 2.704 0 01-.876.991q-.57.399-1.506.399zm.302-1.236q.618 0 1.042-.294c.285-.198.513-.467.662-.781.162-.339.261-.704.295-1.078h-1.696q-.907 0-1.286.317a.988.988 0 00-.381.79q0 .488.367.768.366.28.998.278h-.001zM529.477 161.418q-1.034 0-1.825-.488a3.399 3.399 0 01-1.236-1.337q-.446-.847-.445-1.925 0-1.078.445-1.918a3.343 3.343 0 011.243-1.322q.801-.48 1.833-.48.847 0 1.487.33c.414.21.76.534.997.934V150.9h1.523v10.346h-1.363l-.16-1.107a3.261 3.261 0 01-.948.891q-.603.388-1.551.388zm.273-1.322q.977 0 1.601-.675.623-.676.625-1.739 0-1.077-.625-1.746-.625-.668-1.601-.668-.977 0-1.609.668-.632.669-.632 1.746c-.008.434.09.864.287 1.251.182.353.458.648.798.853.349.209.749.316 1.156.31zM538.759 161.418q-1.049 0-1.861-.467a3.316 3.316 0 01-1.271-1.3q-.46-.834-.46-1.94 0-1.12.452-1.968a3.307 3.307 0 011.265-1.323q.812-.473 1.89-.473 1.048 0 1.824.467c.506.299.923.728 1.207 1.242.289.523.437 1.111.431 1.708 0 .096 0 .199-.007.309-.007.11-.012.232-.021.366h-5.546q.071 1.036.682 1.574c.387.351.892.544 1.415.538q.647 0 1.085-.294c.292-.196.519-.473.654-.797h1.523a3.235 3.235 0 01-1.142 1.68q-.855.678-2.12.678zm0-6.222a2.16 2.16 0 00-1.35.453q-.59.453-.719 1.358h4.023q-.043-.834-.587-1.322-.543-.488-1.367-.489zM543.817 161.246v-7.127h1.351l.129 1.006c.226-.36.54-.657.912-.862q.568-.317 1.315-.316 1.695 0 2.356 1.334c.257-.41.616-.746 1.042-.976a2.883 2.883 0 011.416-.359q1.334 0 2.097.804.764.805.762 2.401v4.095h-1.523v-3.937q0-2.069-1.581-2.069-.805 0-1.314.603-.51.604-.511 1.724v3.679h-1.523v-3.937q0-2.069-1.594-2.069a1.622 1.622 0 00-1.301.603q-.511.604-.511 1.724v3.679h-1.522zM557.582 164.407l1.71-3.752h-.417l-2.816-6.538h1.654l2.184 5.273 2.281-5.271h1.609l-4.597 10.288h-1.608zM446.106 148.892c-.962-2.116-1.236-3.294-1.306-4.245-.004-.101-.119-.143-.18-.067-.848.775-1.368 2.613-1.269 3.823.048.572.138 1.14.269 1.699.12.518.283 1.015.375 1.541.081.462.144.926.145 1.397 0 .493-.138.983-.461 1.341-.384.425-1.267.627-1.967.219-.802-.466-.655-2.047-.581-2.617.115-.618.14-1.046.169-1.785.036-.968-.231-2.257-.752-2.986-.044-.061-.131-.036-.145.042-.12.684-.269 1.332-.423 1.883-.154.547-1.08 3.125-1.599 4.437-.593 1.504-1.168 3.88-1.183 5.488-.014 1.604.404 4.446 1.034 4.704.58.239 1.605.4 2.763.442a.15.15 0 00.153-.136c.037-.742.039-1.141.097-1.867.058-.727.138-1.258.53-1.877s1.05-1.018 1.791-1.021c.845-.005 1.472.408 1.832.952.364.551.519 1.237.575 1.958.065.834.078 1.772.079 1.845v.005l.001.018v.001a.075.075 0 00.004.016c.019.063.076.113.14.111.922-.035 2.01-.086 2.907-.389.559-.189.784-2.131.848-3.461.1-2.038-.362-4.065-1.11-5.95-.759-1.916-1.886-3.648-2.736-5.521zm-3.928 10.652a.107.107 0 00-.019.018l.002-.002.005-.006.014-.015.002-.002-.004.007z" fill="#FFF"/></g><path d="M408.716 151.989q1.823 0 2.855 1.423 1.031 1.422 1.031 3.899 0 2.55-1.064 3.95-1.063 1.399-2.895 1.399-1.814 0-2.845-1.317h-.194l-.469 1.133h-2.145V148.15h2.808v3.333q0 .635-.111 2.035h.111q.985-1.529 2.918-1.529zm-.902 2.247q-1.04 0-1.519.64-.479.639-.497 2.113v.303q0 1.658.492 2.376.493.718 1.561.718.865 0 1.376-.797.511-.796.511-2.315t-.515-2.279q-.516-.759-1.409-.759zm9.723 8.166l-4.088-10.219h3.075l1.942 5.791q.249.755.341 1.786h.055q.102-.948.396-1.786l1.906-5.791h3.011l-4.355 11.609q-.599 1.612-1.708 2.413-1.109.801-2.592.801-.727 0-1.427-.157v-2.228q.507.12 1.105.12.746 0 1.303-.456.557-.456.87-1.376l.166-.507zm7.715-1.243q0-.773.414-1.169.415-.396 1.206-.396.765 0 1.183.405.419.405.419 1.16 0 .728-.423 1.147-.424.418-1.179.418-.773 0-1.197-.409-.423-.41-.423-1.156zm0-7.605q0-.773.414-1.169.415-.396 1.206-.396.765 0 1.183.405.419.405.419 1.16 0 .746-.428 1.156-.428.41-1.174.41-.773 0-1.197-.406-.423-.405-.423-1.16zm-115.114 9.106q-4.806 0-4.806-5.276 0-2.624 1.307-4.009 1.308-1.386 3.748-1.386 1.786 0 3.204.7l-.829 2.173q-.663-.267-1.234-.438-.571-.17-1.141-.17-2.192 0-2.192 3.112 0 3.02 2.192 3.02.81 0 1.5-.216.691-.217 1.381-.677v2.403q-.681.433-1.376.598-.695.166-1.754.166zm7.752-5.349q0 1.528.502 2.311.502.782 1.634.782 1.124 0 1.616-.778.493-.778.493-2.315 0-1.529-.498-2.293-.497-.764-1.629-.764-1.123 0-1.621.76-.497.759-.497 2.297zm7.117 0q0 2.513-1.326 3.931-1.325 1.418-3.692 1.418-1.482 0-2.614-.649-1.133-.649-1.74-1.864-.608-1.216-.608-2.836 0-2.523 1.317-3.922 1.316-1.4 3.701-1.4 1.482 0 2.614.645 1.133.644 1.741 1.85.607 1.206.607 2.827zm6.353 1.261h-4.944v-2.302h4.944v2.302zm11.536-2.808v6.712h-2.808v-6.012q0-2.228-1.657-2.228-1.179 0-1.703.801-.525.801-.525 2.596v4.843h-2.808V148.15h2.808v2.919q0 .34-.065 1.602l-.064.828h.147q.939-1.51 2.983-1.51 1.814 0 2.753.976.939.976.939 2.799zm5.128 1.547q0 1.528.502 2.311.502.782 1.634.782 1.124 0 1.616-.778.493-.778.493-2.315 0-1.529-.497-2.293-.497-.764-1.63-.764-1.123 0-1.62.76-.498.759-.498 2.297zm7.117 0q0 2.513-1.325 3.931-1.326 1.418-3.692 1.418-1.483 0-2.615-.649-1.133-.649-1.74-1.864-.608-1.216-.608-2.836 0-2.523 1.317-3.922 1.316-1.4 3.701-1.4 1.482 0 2.615.645 1.132.644 1.74 1.85.607 1.206.607 2.827zm9.502 2.108q0 1.584-1.1 2.412-1.101.829-3.292.829-1.123 0-1.915-.152t-1.482-.446v-2.321q.782.369 1.763.617.981.249 1.726.249 1.529 0 1.529-.884 0-.331-.203-.539-.202-.207-.7-.469-.497-.263-1.325-.612-1.188-.498-1.745-.921-.557-.424-.81-.971-.254-.548-.254-1.349 0-1.372 1.064-2.122 1.063-.751 3.015-.751 1.86 0 3.618.81l-.847 2.026q-.773-.332-1.445-.543-.672-.212-1.372-.212-1.243 0-1.243.672 0 .378.401.654.4.276 1.754.819 1.206.488 1.767.912.562.423.829.976.267.552.267 1.316zm6.528 1.004q.736 0 1.767-.323v2.09q-1.049.47-2.578.47-1.684 0-2.453-.852-.769-.851-.769-2.555v-4.962h-1.344v-1.188l1.547-.939.81-2.173h1.795v2.192h2.882v2.108h-2.882v4.962q0 .599.336.884.336.286.889.286zm8.111-6.436q-.893 0-1.4.566-.506.567-.58 1.607h3.941q-.018-1.04-.543-1.607-.525-.566-1.418-.566zm.396 8.673q-2.486 0-3.886-1.372-1.399-1.372-1.399-3.885 0-2.587 1.294-4.001 1.293-1.413 3.576-1.413 2.183 0 3.398 1.243 1.215 1.243 1.215 3.434v1.363h-6.638q.046 1.197.709 1.869.663.672 1.86.672.93 0 1.758-.193.829-.194 1.731-.617v2.173q-.736.368-1.574.547-.838.18-2.044.18zm9.741 0q-1.814 0-2.85-1.409-1.036-1.408-1.036-3.903 0-2.532 1.055-3.946 1.054-1.413 2.904-1.413 1.943 0 2.965 1.51h.092q-.212-1.151-.212-2.053v-3.296h2.818v14.326H393l-.543-1.335h-.12q-.957 1.519-2.918 1.519zm.985-2.237q1.077 0 1.579-.626t.548-2.127v-.304q0-1.657-.511-2.375t-1.662-.718q-.939 0-1.459.796-.521.796-.521 2.315 0 1.52.525 2.279.525.76 1.501.76z" fill="#FFF"/></g></svg>