<?xml version="1.0" encoding="UTF-8" standalone="no"?><!-- Generator: Gravit.io --><svg xmlns="http://www.w3.org/2000/svg" xmlns:xlink="http://www.w3.org/1999/xlink" style="isolation:isolate" viewBox="0 0 567 235" width="567pt" height="235pt"><defs><clipPath id="_clipPath_vg7gi9lfnCNjmJawy1KaAriWNxruTG1A"><rect width="567" height="235"/></clipPath></defs><g clip-path="url(#_clipPath_vg7gi9lfnCNjmJawy1KaAriWNxruTG1A)"><clipPath id="_clipPath_hRmtnvo6eQoyLdjheKPDkJdrMmjNKfCl"><rect x="-17" y="0" width="600" height="302.941" transform="matrix(1,0,0,1,0,0)" fill="rgb(255,255,255)"/></clipPath><g clip-path="url(#_clipPath_hRmtnvo6eQoyLdjheKPDkJdrMmjNKfCl)"><g><clipPath id="_clipPath_B2vvWJPSEgtjy6S0qFWifGtuUgxcQykB"><rect x="219.525" y="83.144" width="344.243" height="68.475" transform="matrix(1,0,0,1,0,0)" fill="rgb(255,255,255)"/></clipPath><g clip-path="url(#_clipPath_B2vvWJPSEgtjy6S0qFWifGtuUgxcQykB)"><g><path d=" M 247.957 116.495 L 247.957 130.269 L 240.469 130.269 L 240.469 114.237 L 240.469 114.237 Q 240.469 111.266 239.475 109.781 L 239.475 109.781 L 239.475 109.781 Q 238.481 108.295 236.345 108.295 L 236.345 108.295 L 236.345 108.295 Q 233.472 108.295 232.171 110.407 L 232.171 110.407 L 232.171 110.407 Q 230.869 112.518 230.869 117.355 L 230.869 117.355 L 230.869 130.269 L 223.381 130.269 L 223.381 102.82 L 229.102 102.82 L 230.108 106.331 L 230.526 106.331 L 230.526 106.331 Q 231.631 104.441 233.717 103.373 L 233.717 103.373 L 233.717 103.373 Q 235.804 102.305 238.505 102.305 L 238.505 102.305 L 238.505 102.305 Q 244.668 102.305 246.853 106.331 L 246.853 106.331 L 247.516 106.331 L 247.516 106.331 Q 248.62 104.416 250.769 103.36 L 250.769 103.36 L 250.769 103.36 Q 252.917 102.305 255.618 102.305 L 255.618 102.305 L 255.618 102.305 Q 260.282 102.305 262.676 104.698 L 262.676 104.698 L 262.676 104.698 Q 265.07 107.092 265.07 112.371 L 265.07 112.371 L 265.07 130.269 L 257.557 130.269 L 257.557 114.237 L 257.557 114.237 Q 257.557 111.266 256.563 109.781 L 256.563 109.781 L 256.563 109.781 Q 255.569 108.295 253.433 108.295 L 253.433 108.295 L 253.433 108.295 Q 250.683 108.295 249.32 110.259 L 249.32 110.259 L 249.32 110.259 Q 247.957 112.223 247.957 116.495 L 247.957 116.495 L 247.957 116.495 Z  M 295.416 130.269 L 290.186 130.269 L 288.738 126.537 L 288.542 126.537 L 288.542 126.537 Q 286.651 128.919 284.65 129.839 L 284.65 129.839 L 284.65 129.839 Q 282.649 130.76 279.433 130.76 L 279.433 130.76 L 279.433 130.76 Q 275.48 130.76 273.209 128.501 L 273.209 128.501 L 273.209 128.501 Q 270.938 126.242 270.938 122.069 L 270.938 122.069 L 270.938 122.069 Q 270.938 117.698 273.995 115.624 L 273.995 115.624 L 273.995 115.624 Q 277.051 113.549 283.214 113.328 L 283.214 113.328 L 287.977 113.181 L 287.977 111.978 L 287.977 111.978 Q 287.977 107.804 283.705 107.804 L 283.705 107.804 L 283.705 107.804 Q 280.415 107.804 275.971 109.793 L 275.971 109.793 L 273.491 104.735 L 273.491 104.735 Q 278.23 102.255 283.999 102.255 L 283.999 102.255 L 283.999 102.255 Q 289.524 102.255 292.47 104.661 L 292.47 104.661 L 292.47 104.661 Q 295.416 107.068 295.416 111.978 L 295.416 111.978 L 295.416 130.269 L 295.416 130.269 Z  M 287.977 119.81 L 287.977 117.551 L 285.08 117.649 L 285.08 117.649 Q 281.814 117.748 280.218 118.828 L 280.218 118.828 L 280.218 118.828 Q 278.623 119.908 278.623 122.118 L 278.623 122.118 L 278.623 122.118 Q 278.623 125.285 282.256 125.285 L 282.256 125.285 L 282.256 125.285 Q 284.859 125.285 286.418 123.787 L 286.418 123.787 L 286.418 123.787 Q 287.977 122.29 287.977 119.81 L 287.977 119.81 L 287.977 119.81 Z  M 310.221 115.341 L 310.319 115.341 L 313.584 111.168 L 321.269 102.82 L 329.715 102.82 L 318.814 114.728 L 330.378 130.269 L 321.735 130.269 L 313.83 119.147 L 310.614 121.725 L 310.614 130.269 L 303.125 130.269 L 303.125 92.066 L 310.614 92.066 L 310.614 109.105 L 310.221 115.341 L 310.221 115.341 Z  M 345.673 107.632 L 345.673 107.632 L 345.673 107.632 Q 343.292 107.632 341.942 109.142 L 341.942 109.142 L 341.942 109.142 Q 340.591 110.652 340.395 113.426 L 340.395 113.426 L 350.903 113.426 L 350.903 113.426 Q 350.854 110.652 349.454 109.142 L 349.454 109.142 L 349.454 109.142 Q 348.055 107.632 345.673 107.632 Z  M 346.729 130.76 L 346.729 130.76 L 346.729 130.76 Q 340.1 130.76 336.368 127.102 L 336.368 127.102 L 336.368 127.102 Q 332.636 123.444 332.636 116.741 L 332.636 116.741 L 332.636 116.741 Q 332.636 109.842 336.086 106.073 L 336.086 106.073 L 336.086 106.073 Q 339.535 102.305 345.624 102.305 L 345.624 102.305 L 345.624 102.305 Q 351.443 102.305 354.684 105.619 L 354.684 105.619 L 354.684 105.619 Q 357.925 108.933 357.925 114.777 L 357.925 114.777 L 357.925 118.41 L 340.223 118.41 L 340.223 118.41 Q 340.346 121.602 342.113 123.394 L 342.113 123.394 L 342.113 123.394 Q 343.881 125.187 347.073 125.187 L 347.073 125.187 L 347.073 125.187 Q 349.553 125.187 351.762 124.671 L 351.762 124.671 L 351.762 124.671 Q 353.972 124.156 356.378 123.026 L 356.378 123.026 L 356.378 128.82 L 356.378 128.82 Q 354.414 129.802 352.18 130.281 L 352.18 130.281 L 352.18 130.281 Q 349.945 130.76 346.729 130.76 Z " fill="rgb(121,99,171)"/><path d=" M 383.172 122.118 L 383.172 122.118 L 383.172 122.118 Q 383.172 126.341 380.238 128.55 L 380.238 128.55 L 380.238 128.55 Q 377.304 130.76 371.461 130.76 L 371.461 130.76 L 371.461 130.76 Q 368.465 130.76 366.354 130.355 L 366.354 130.355 L 366.354 130.355 Q 364.242 129.95 362.401 129.164 L 362.401 129.164 L 362.401 122.977 L 362.401 122.977 Q 364.488 123.959 367.103 124.622 L 367.103 124.622 L 367.103 124.622 Q 369.717 125.285 371.706 125.285 L 371.706 125.285 L 371.706 125.285 Q 375.782 125.285 375.782 122.928 L 375.782 122.928 L 375.782 122.928 Q 375.782 122.044 375.242 121.492 L 375.242 121.492 L 375.242 121.492 Q 374.701 120.939 373.376 120.24 L 373.376 120.24 L 373.376 120.24 Q 372.05 119.54 369.84 118.607 L 369.84 118.607 L 369.84 118.607 Q 366.673 117.281 365.188 116.152 L 365.188 116.152 L 365.188 116.152 Q 363.702 115.022 363.027 113.561 L 363.027 113.561 L 363.027 113.561 Q 362.352 112.101 362.352 109.965 L 362.352 109.965 L 362.352 109.965 Q 362.352 106.306 365.188 104.305 L 365.188 104.305 L 365.188 104.305 Q 368.023 102.305 373.228 102.305 L 373.228 102.305 L 373.228 102.305 Q 378.188 102.305 382.877 104.465 L 382.877 104.465 L 380.618 109.866 L 380.618 109.866 Q 378.556 108.983 376.764 108.418 L 376.764 108.418 L 376.764 108.418 Q 374.972 107.853 373.106 107.853 L 373.106 107.853 L 373.106 107.853 Q 369.791 107.853 369.791 109.645 L 369.791 109.645 L 369.791 109.645 Q 369.791 110.652 370.859 111.389 L 370.859 111.389 L 370.859 111.389 Q 371.927 112.125 375.536 113.574 L 375.536 113.574 L 375.536 113.574 Q 378.753 114.875 380.25 116.004 L 380.25 116.004 L 380.25 116.004 Q 381.748 117.134 382.46 118.607 L 382.46 118.607 L 382.46 118.607 Q 383.172 120.08 383.172 122.118 Z  M 404.09 130.76 L 404.09 130.76 L 404.09 130.76 Q 399.253 130.76 396.503 127.249 L 396.503 127.249 L 396.111 127.249 L 396.111 127.249 Q 396.503 130.686 396.503 131.226 L 396.503 131.226 L 396.503 142.348 L 389.015 142.348 L 389.015 102.82 L 395.104 102.82 L 396.16 106.38 L 396.503 106.38 L 396.503 106.38 Q 399.13 102.305 404.286 102.305 L 404.286 102.305 L 404.286 102.305 Q 409.148 102.305 411.897 106.061 L 411.897 106.061 L 411.897 106.061 Q 414.647 109.817 414.647 116.495 L 414.647 116.495 L 414.647 116.495 Q 414.647 120.89 413.358 124.131 L 413.358 124.131 L 413.358 124.131 Q 412.069 127.372 409.688 129.066 L 409.688 129.066 L 409.688 129.066 Q 407.306 130.76 404.09 130.76 Z  M 401.88 108.295 L 401.88 108.295 L 401.88 108.295 Q 399.106 108.295 397.829 110.001 L 397.829 110.001 L 397.829 110.001 Q 396.553 111.708 396.503 115.636 L 396.503 115.636 L 396.503 116.446 L 396.503 116.446 Q 396.503 120.866 397.817 122.781 L 397.817 122.781 L 397.817 122.781 Q 399.13 124.696 401.978 124.696 L 401.978 124.696 L 401.978 124.696 Q 407.012 124.696 407.012 116.397 L 407.012 116.397 L 407.012 116.397 Q 407.012 112.346 405.772 110.321 L 405.772 110.321 L 405.772 110.321 Q 404.532 108.295 401.88 108.295 Z  M 435.909 130.76 L 435.909 130.76 L 435.909 130.76 Q 431.072 130.76 428.322 127.249 L 428.322 127.249 L 427.93 127.249 L 427.93 127.249 Q 428.322 130.686 428.322 131.226 L 428.322 131.226 L 428.322 142.348 L 420.834 142.348 L 420.834 102.82 L 426.923 102.82 L 427.979 106.38 L 428.322 106.38 L 428.322 106.38 Q 430.95 102.305 436.105 102.305 L 436.105 102.305 L 436.105 102.305 Q 440.967 102.305 443.716 106.061 L 443.716 106.061 L 443.716 106.061 Q 446.466 109.817 446.466 116.495 L 446.466 116.495 L 446.466 116.495 Q 446.466 120.89 445.177 124.131 L 445.177 124.131 L 445.177 124.131 Q 443.888 127.372 441.507 129.066 L 441.507 129.066 L 441.507 129.066 Q 439.125 130.76 435.909 130.76 Z  M 433.699 108.295 L 433.699 108.295 L 433.699 108.295 Q 430.925 108.295 429.648 110.001 L 429.648 110.001 L 429.648 110.001 Q 428.372 111.708 428.322 115.636 L 428.322 115.636 L 428.322 116.446 L 428.322 116.446 Q 428.322 120.866 429.636 122.781 L 429.636 122.781 L 429.636 122.781 Q 430.95 124.696 433.798 124.696 L 433.798 124.696 L 433.798 124.696 Q 438.831 124.696 438.831 116.397 L 438.831 116.397 L 438.831 116.397 Q 438.831 112.346 437.591 110.321 L 437.591 110.321 L 437.591 110.321 Q 436.351 108.295 433.699 108.295 Z " fill="rgb(241,95,94)"/><path d=" M 475.835 123.886 L 475.835 130.269 L 450.743 130.269 L 450.743 124.99 L 459.754 115.882 L 459.754 115.882 Q 463.756 111.781 464.983 110.198 L 464.983 110.198 L 464.983 110.198 Q 466.211 108.614 466.751 107.264 L 466.751 107.264 L 466.751 107.264 Q 467.291 105.914 467.291 104.465 L 467.291 104.465 L 467.291 104.465 Q 467.291 102.305 466.1 101.249 L 466.1 101.249 L 466.1 101.249 Q 464.91 100.193 462.921 100.193 L 462.921 100.193 L 462.921 100.193 Q 460.834 100.193 458.87 101.151 L 458.87 101.151 L 458.87 101.151 Q 456.906 102.108 454.77 103.876 L 454.77 103.876 L 450.645 98.99 L 450.645 98.99 Q 453.297 96.731 455.04 95.798 L 455.04 95.798 L 455.04 95.798 Q 456.783 94.865 458.845 94.362 L 458.845 94.362 L 458.845 94.362 Q 460.908 93.859 463.461 93.859 L 463.461 93.859 L 463.461 93.859 Q 466.825 93.859 469.403 95.086 L 469.403 95.086 L 469.403 95.086 Q 471.98 96.314 473.404 98.524 L 473.404 98.524 L 473.404 98.524 Q 474.828 100.733 474.828 103.581 L 474.828 103.581 L 474.828 103.581 Q 474.828 106.061 473.957 108.234 L 473.957 108.234 L 473.957 108.234 Q 473.085 110.407 471.256 112.69 L 471.256 112.69 L 471.256 112.69 Q 469.427 114.973 464.811 119.196 L 464.811 119.196 L 460.196 123.542 L 460.196 123.886 L 475.835 123.886 L 475.835 123.886 Z  M 504.34 112.322 L 504.34 112.322 L 504.34 112.322 Q 504.34 121.725 501.258 126.242 L 501.258 126.242 L 501.258 126.242 Q 498.177 130.76 491.769 130.76 L 491.769 130.76 L 491.769 130.76 Q 485.558 130.76 482.403 126.095 L 482.403 126.095 L 482.403 126.095 Q 479.248 121.43 479.248 112.322 L 479.248 112.322 L 479.248 112.322 Q 479.248 102.82 482.317 98.315 L 482.317 98.315 L 482.317 98.315 Q 485.386 93.81 491.769 93.81 L 491.769 93.81 L 491.769 93.81 Q 497.981 93.81 501.16 98.524 L 501.16 98.524 L 501.16 98.524 Q 504.34 103.237 504.34 112.322 Z  M 486.785 112.322 L 486.785 112.322 L 486.785 112.322 Q 486.785 118.926 487.927 121.786 L 487.927 121.786 L 487.927 121.786 Q 489.068 124.647 491.769 124.647 L 491.769 124.647 L 491.769 124.647 Q 494.421 124.647 495.599 121.75 L 495.599 121.75 L 495.599 121.75 Q 496.778 118.852 496.778 112.322 L 496.778 112.322 L 496.778 112.322 Q 496.778 105.717 495.587 102.832 L 495.587 102.832 L 495.587 102.832 Q 494.396 99.948 491.769 99.948 L 491.769 99.948 L 491.769 99.948 Q 489.093 99.948 487.939 102.832 L 487.939 102.832 L 487.939 102.832 Q 486.785 105.717 486.785 112.322 Z  M 533.237 123.886 L 533.237 130.269 L 508.145 130.269 L 508.145 124.99 L 517.156 115.882 L 517.156 115.882 Q 521.158 111.781 522.385 110.198 L 522.385 110.198 L 522.385 110.198 Q 523.613 108.614 524.153 107.264 L 524.153 107.264 L 524.153 107.264 Q 524.693 105.914 524.693 104.465 L 524.693 104.465 L 524.693 104.465 Q 524.693 102.305 523.502 101.249 L 523.502 101.249 L 523.502 101.249 Q 522.312 100.193 520.323 100.193 L 520.323 100.193 L 520.323 100.193 Q 518.236 100.193 516.272 101.151 L 516.272 101.151 L 516.272 101.151 Q 514.308 102.108 512.172 103.876 L 512.172 103.876 L 508.047 98.99 L 508.047 98.99 Q 510.699 96.731 512.442 95.798 L 512.442 95.798 L 512.442 95.798 Q 514.185 94.865 516.247 94.362 L 516.247 94.362 L 516.247 94.362 Q 518.31 93.859 520.863 93.859 L 520.863 93.859 L 520.863 93.859 Q 524.227 93.859 526.805 95.086 L 526.805 95.086 L 526.805 95.086 Q 529.382 96.314 530.806 98.524 L 530.806 98.524 L 530.806 98.524 Q 532.23 100.733 532.23 103.581 L 532.23 103.581 L 532.23 103.581 Q 532.23 106.061 531.359 108.234 L 531.359 108.234 L 531.359 108.234 Q 530.487 110.407 528.658 112.69 L 528.658 112.69 L 528.658 112.69 Q 526.829 114.973 522.213 119.196 L 522.213 119.196 L 517.598 123.542 L 517.598 123.886 L 533.237 123.886 L 533.237 123.886 Z  M 561.742 112.322 L 561.742 112.322 L 561.742 112.322 Q 561.742 121.725 558.66 126.242 L 558.66 126.242 L 558.66 126.242 Q 555.579 130.76 549.171 130.76 L 549.171 130.76 L 549.171 130.76 Q 542.96 130.76 539.805 126.095 L 539.805 126.095 L 539.805 126.095 Q 536.65 121.43 536.65 112.322 L 536.65 112.322 L 536.65 112.322 Q 536.65 102.82 539.719 98.315 L 539.719 98.315 L 539.719 98.315 Q 542.788 93.81 549.171 93.81 L 549.171 93.81 L 549.171 93.81 Q 555.383 93.81 558.562 98.524 L 558.562 98.524 L 558.562 98.524 Q 561.742 103.237 561.742 112.322 Z  M 544.187 112.322 L 544.187 112.322 L 544.187 112.322 Q 544.187 118.926 545.329 121.786 L 545.329 121.786 L 545.329 121.786 Q 546.47 124.647 549.171 124.647 L 549.171 124.647 L 549.171 124.647 Q 551.823 124.647 553.001 121.75 L 553.001 121.75 L 553.001 121.75 Q 554.18 118.852 554.18 112.322 L 554.18 112.322 L 554.18 112.322 Q 554.18 105.717 552.989 102.832 L 552.989 102.832 L 552.989 102.832 Q 551.798 99.948 549.171 99.948 L 549.171 99.948 L 549.171 99.948 Q 546.495 99.948 545.341 102.832 L 545.341 102.832 L 545.341 102.832 Q 544.187 105.717 544.187 112.322 Z " fill="rgb(255,255,255)"/></g></g><clipPath id="_clipPath_AyfVBTlEPxWg9bTS0HKLJOE9Cv47DX6p"><path d=" M 2.213 -54 L 299.966 -54 C 299.966 -54 299.966 -54 299.966 -54 L 299.966 236.164 C 299.966 236.164 299.966 236.164 299.966 236.164 L 2.213 236.164 C 2.213 236.164 2.213 236.164 2.213 236.164 L 2.213 -54" fill="rgb(255,255,255)"/></clipPath><g clip-path="url(#_clipPath_AyfVBTlEPxWg9bTS0HKLJOE9Cv47DX6p)"><g><g><clipPath id="_clipPath_Gzt6nB979c5XAE9WWw1vrjhBXfFd7kaG"><path d=" M -2.493 3.177 L 203.228 3.177 C 203.228 3.177 203.228 3.177 203.228 3.177 L 203.228 233.705 C 203.228 233.705 203.228 233.705 203.228 233.705 L -2.493 233.705 C -2.493 233.705 -2.493 233.705 -2.493 233.705 L -2.493 3.177 C -2.493 3.177 -2.493 3.177 -2.493 3.177 Z " fill="rgb(255,255,255)"/></clipPath><g clip-path="url(#_clipPath_Gzt6nB979c5XAE9WWw1vrjhBXfFd7kaG)"><g><g><g><g><g><g><path d=" M 192.267 116.664 C 191.69 117.319 192.844 121.174 192.241 121.83 C 167.065 147.006 144.616 172.628 119.361 197.804 C 113.277 203.889 98.303 208.976 91.196 205.226 C 90.015 204.649 84.639 206.091 83.695 205.226 C 82.122 203.652 75.565 192.297 73.992 190.723 C 50.216 167.078 38.615 143.665 14.985 119.994 C 14.818 119.827 14.104 119.742 13.936 119.575 C 13.123 118.762 12.835 117.708 12.258 116.69 C 12.173 116.284 12.385 115.877 12.625 115.274 C 13.765 112.407 16.14 105.674 16.769 105.046 C 41.787 80.027 64.446 55.428 89.334 30.304 C 96.939 22.621 107.481 22.384 115.218 30.304 C 119.666 14.279 144.792 47.299 190.143 113.491 C 190.903 114.199 191.559 115.851 192.267 116.664 Z " fill="rgb(120,46,122)"/><path d=" M 194.523 88.682 C 202.547 96.654 202.547 106.436 194.627 114.461 C 193.919 115.169 193.342 115.929 192.765 116.638 C 192.582 116.638 192.425 116.69 192.241 116.69 C 191.533 115.877 190.903 115.038 190.143 114.277 C 165.124 89.259 140.001 64.423 115.218 39.142 C 107.429 31.222 96.939 31.458 89.334 39.142 C 64.446 64.292 39.375 89.18 14.356 114.199 C 13.595 114.959 12.94 115.798 12.206 116.638 C 11.996 116.611 12.022 116.69 11.838 116.664 C 11.314 115.353 10.055 114.487 9.137 113.491 C 2.214 105.99 2.214 96.838 9.321 89.468 C 11.733 86.951 14.251 84.486 16.769 82.02 C 41.027 57.762 65.259 33.556 89.57 9.298 C 96.073 2.794 103.443 1.457 110.471 5.364 C 112.228 6.308 113.566 7.698 114.982 9.062" fill="rgb(120,98,173)"/><path d=" M 115.008 223.636 C 106.983 231.661 97.621 231.661 89.596 223.688 C 63.24 197.332 36.883 170.976 10.527 144.62 C 1.794 135.887 1.742 126.996 10.422 118.211 C 10.894 117.739 11.314 117.214 11.76 116.69 C 11.943 116.742 12.048 116.742 12.232 116.69 C 12.992 117.582 13.7 118.447 14.513 119.26 C 38.483 143.099 62.427 166.885 86.396 190.723 C 87.97 192.297 89.57 193.897 91.196 195.47 C 92.087 196.362 93.005 197.227 94.185 197.804 C 101.266 201.607 108.819 200.322 114.929 194.238 C 140.105 169.062 165.36 143.859 190.563 118.683 C 191.14 118.106 191.743 117.398 192.267 116.69 C 192.451 116.69 192.608 116.638 192.792 116.638 C 193.736 117.634 194.654 118.631 195.598 119.575 C 202.338 126.551 202.39 136.201 195.545 143.072" fill="rgb(241,93,93)"/></g><path d=" M 159.036 252.626 L 160.877 252.626 L 160.877 252.626 L 159.036 252.626 Z " fill="none"/></g></g></g></g></g></g></g></g></g><g><linearGradient id="_lgradient_6" x1="0.5" y1="0" x2="0.49999999999999983" y2="1" gradientTransform="matrix(0.083,0,0,0.093,537.953,148.954)" gradientUnits="userSpaceOnUse"><stop offset="0%" stop-opacity="1" style="stop-color:rgb(27,20,100)"/><stop offset="15%" stop-opacity="1" style="stop-color:rgb(29,21,105)"/><stop offset="31%" stop-opacity="1" style="stop-color:rgb(36,24,118)"/><stop offset="48%" stop-opacity="1" style="stop-color:rgb(48,28,140)"/><stop offset="66%" stop-opacity="1" style="stop-color:rgb(64,35,172)"/><stop offset="83%" stop-opacity="1" style="stop-color:rgb(84,43,211)"/><stop offset="100%" stop-opacity="1" style="stop-color:rgb(106,52,255)"/></linearGradient><path d=" M 538.014 148.983 C 538.02 148.972 538.028 148.963 538.036 148.954 C 538.008 148.985 537.979 149.015 537.953 149.047 C 537.972 149.024 537.992 149.002 538.014 148.983 L 538.014 148.983 Z " fill="url(#_lgradient_6)"/><linearGradient id="_lgradient_7" x1="0" y1="1" x2="6.123233995736766e-17" y2="0" gradientTransform="matrix(0,0,0,0.012,554.737,165.382)" gradientUnits="userSpaceOnUse"><stop offset="13%" stop-opacity="1" style="stop-color:rgb(82,35,188)"/><stop offset="32%" stop-opacity="1" style="stop-color:rgb(105,60,205)"/><stop offset="56.00000000000001%" stop-opacity="1" style="stop-color:rgb(122,87,233)"/><stop offset="73%" stop-opacity="1" style="stop-color:rgb(131,103,249)"/></linearGradient><path d=" M 554.737 165.393 C 554.737 165.391 554.737 165.388 554.737 165.385 C 554.737 165.385 554.737 165.383 554.737 165.382 L 554.737 165.393 Z " fill="url(#_lgradient_7)"/><path d=" M 453.079 161.246 L 453.079 151.187 L 454.604 151.187 L 454.604 155.498 L 459.475 155.498 L 459.475 151.187 L 460.996 151.187 L 460.996 161.246 L 459.474 161.246 L 459.474 156.749 L 454.604 156.749 L 454.604 161.246 L 453.079 161.246 Z " fill="rgb(255,255,255)"/><path d=" M 466.385 161.418 Q 465.336 161.418 464.524 160.951 C 463.987 160.645 463.547 160.194 463.252 159.651 Q 462.793 158.817 462.793 157.711 Q 462.793 156.591 463.245 155.743 C 463.534 155.192 463.972 154.733 464.51 154.42 Q 465.321 153.947 466.399 153.947 Q 467.448 153.947 468.224 154.414 C 468.73 154.713 469.146 155.142 469.431 155.656 C 469.719 156.179 469.868 156.767 469.862 157.364 C 469.862 157.46 469.86 157.563 469.855 157.673 C 469.85 157.783 469.842 157.905 469.833 158.039 L 464.287 158.039 Q 464.359 159.075 464.97 159.613 C 465.357 159.964 465.862 160.157 466.385 160.151 Q 467.031 160.151 467.47 159.857 C 467.761 159.661 467.989 159.384 468.123 159.06 L 469.647 159.06 C 469.456 159.728 469.056 160.317 468.504 160.74 Q 467.649 161.418 466.385 161.418 Z  M 466.385 155.196 C 465.896 155.19 465.42 155.35 465.034 155.649 Q 464.447 156.102 464.315 157.007 L 468.339 157.007 Q 468.296 156.173 467.752 155.685 Q 467.208 155.197 466.385 155.196 Z " fill="rgb(255,255,255)"/><path d=" M 474.359 161.418 Q 473.008 161.418 472.132 160.757 C 471.563 160.342 471.197 159.705 471.126 159.004 L 472.664 159.004 C 472.745 159.338 472.938 159.634 473.21 159.845 Q 473.641 160.198 474.345 160.197 Q 475.035 160.197 475.351 159.91 Q 475.667 159.623 475.667 159.249 Q 475.667 158.703 475.229 158.508 Q 474.79 158.314 474.015 158.156 C 473.607 158.069 473.206 157.954 472.815 157.812 C 472.443 157.684 472.104 157.476 471.823 157.201 Q 471.428 156.806 471.428 156.131 Q 471.428 155.197 472.147 154.572 Q 472.865 153.946 474.158 153.947 Q 475.351 153.947 476.091 154.521 Q 476.831 155.096 476.962 156.145 L 475.494 156.145 C 475.458 155.857 475.305 155.597 475.071 155.425 Q 474.719 155.166 474.129 155.166 Q 473.555 155.166 473.239 155.404 C 473.038 155.542 472.919 155.771 472.922 156.014 Q 472.922 156.388 473.361 156.601 Q 473.799 156.815 474.517 156.989 C 474.967 157.087 475.411 157.209 475.847 157.356 C 476.22 157.474 476.559 157.684 476.831 157.966 Q 477.205 158.369 477.205 159.144 Q 477.218 160.122 476.45 160.768 Q 475.682 161.414 474.359 161.418 Z " fill="rgb(255,255,255)"/><path d=" M 481.657 161.246 Q 480.608 161.246 479.99 160.736 Q 479.373 160.226 479.373 158.918 L 479.373 155.396 L 478.153 155.396 L 478.153 154.116 L 479.374 154.116 L 479.561 152.305 L 480.895 152.305 L 480.895 154.116 L 482.907 154.116 L 482.907 155.396 L 480.895 155.396 L 480.895 158.918 Q 480.895 159.505 481.146 159.73 Q 481.398 159.954 482.015 159.952 L 482.837 159.952 L 482.837 161.246 L 481.657 161.246 Z " fill="rgb(255,255,255)"/><path d=" M 485.409 152.768 C 485.146 152.778 484.89 152.682 484.697 152.502 C 484.519 152.326 484.418 152.085 484.418 151.835 C 484.418 151.584 484.519 151.344 484.697 151.168 C 485.105 150.813 485.712 150.813 486.12 151.168 C 486.298 151.344 486.399 151.584 486.399 151.835 C 486.399 152.085 486.298 152.326 486.12 152.502 C 485.928 152.682 485.672 152.778 485.409 152.768 Z  M 484.646 161.246 L 484.646 154.119 L 486.168 154.119 L 486.168 161.246 L 484.646 161.246 Z " fill="rgb(255,255,255)"/><path d=" M 490.667 161.418 Q 489.76 161.418 489.173 161.117 Q 488.586 160.815 488.296 160.316 C 488.105 159.988 488.005 159.614 488.007 159.234 Q 488.007 158.2 488.812 157.596 Q 489.617 156.992 491.111 156.992 L 492.978 156.992 L 492.978 156.866 Q 492.978 156.033 492.526 155.616 Q 492.073 155.199 491.352 155.199 C 490.963 155.19 490.58 155.297 490.253 155.508 Q 489.785 155.818 489.685 156.42 L 488.167 156.42 C 488.203 155.934 488.386 155.471 488.692 155.091 C 488.999 154.718 489.394 154.427 489.841 154.244 C 490.326 154.043 490.847 153.943 491.372 153.949 Q 492.866 153.949 493.685 154.732 Q 494.504 155.515 494.504 156.867 L 494.504 161.249 L 493.183 161.249 L 493.054 160.028 C 492.848 160.425 492.547 160.766 492.177 161.019 Q 491.602 161.418 490.667 161.418 Z  M 490.969 160.182 Q 491.587 160.182 492.011 159.888 C 492.295 159.69 492.523 159.42 492.672 159.107 C 492.834 158.768 492.933 158.403 492.967 158.029 L 491.271 158.029 Q 490.364 158.029 489.985 158.346 C 489.741 158.535 489.6 158.827 489.604 159.136 Q 489.604 159.624 489.97 159.904 Q 490.336 160.184 490.969 160.182 Z " fill="rgb(255,255,255)"/><path d=" M 499.747 161.246 L 503.454 151.187 L 505.12 151.187 L 508.799 161.246 L 507.19 161.246 L 506.327 158.791 L 502.219 158.791 L 501.356 161.246 L 499.747 161.246 Z  M 502.649 157.582 L 505.897 157.582 L 504.273 152.998 L 502.649 157.582 Z " fill="rgb(255,255,255)"/><path d=" M 513.169 161.418 Q 512.12 161.418 511.294 160.944 C 510.749 160.634 510.301 160.179 510.001 159.629 Q 509.533 158.788 509.533 157.682 Q 509.533 156.577 510.001 155.735 C 510.301 155.186 510.749 154.73 511.294 154.42 Q 512.12 153.947 513.169 153.947 Q 514.491 153.947 515.388 154.636 Q 516.286 155.325 516.545 156.504 L 514.95 156.504 C 514.865 156.128 514.639 155.799 514.318 155.585 C 513.656 155.164 512.815 155.144 512.134 155.535 C 511.809 155.732 511.545 156.016 511.373 156.354 Q 511.085 156.893 511.086 157.683 Q 511.086 158.474 511.373 159.013 C 511.546 159.352 511.81 159.638 512.134 159.839 C 512.445 160.029 512.804 160.129 513.169 160.126 C 513.577 160.136 513.978 160.02 514.318 159.795 C 514.642 159.578 514.869 159.243 514.95 158.862 L 516.545 158.862 C 516.401 159.599 515.992 160.258 515.396 160.715 Q 514.491 161.418 513.169 161.418 Z " fill="rgb(255,255,255)"/><path d=" M 520.61 161.418 Q 519.703 161.418 519.116 161.117 Q 518.529 160.815 518.24 160.316 C 518.048 159.987 517.949 159.612 517.952 159.231 Q 517.952 158.197 518.757 157.593 Q 519.562 156.989 521.056 156.99 L 522.923 156.99 L 522.923 156.866 Q 522.923 156.033 522.471 155.616 Q 522.018 155.199 521.297 155.199 C 520.908 155.19 520.525 155.297 520.198 155.508 Q 519.73 155.818 519.63 156.42 L 518.107 156.42 C 518.143 155.934 518.326 155.471 518.632 155.091 C 518.939 154.718 519.334 154.427 519.781 154.244 C 520.266 154.044 520.787 153.943 521.311 153.949 Q 522.806 153.949 523.625 154.732 Q 524.444 155.515 524.444 156.867 L 524.444 161.249 L 523.122 161.249 L 522.992 160.028 C 522.787 160.425 522.486 160.766 522.116 161.019 Q 521.546 161.418 520.61 161.418 Z  M 520.912 160.182 Q 521.53 160.182 521.954 159.888 C 522.239 159.69 522.467 159.421 522.616 159.107 C 522.778 158.768 522.877 158.403 522.911 158.029 L 521.215 158.029 Q 520.308 158.029 519.929 158.346 C 519.686 158.535 519.545 158.827 519.548 159.136 Q 519.548 159.624 519.915 159.904 Q 520.281 160.184 520.913 160.182 L 520.912 160.182 Z " fill="rgb(255,255,255)"/><path d=" M 529.477 161.418 Q 528.443 161.418 527.652 160.93 C 527.126 160.605 526.699 160.143 526.416 159.593 Q 525.97 158.746 525.971 157.668 Q 525.971 156.59 526.416 155.75 C 526.701 155.203 527.131 154.745 527.659 154.428 Q 528.46 153.948 529.492 153.948 Q 530.339 153.948 530.979 154.278 C 531.393 154.488 531.739 154.812 531.976 155.212 L 531.976 150.9 L 533.499 150.9 L 533.499 161.246 L 532.136 161.246 L 531.976 160.139 C 531.723 160.497 531.4 160.8 531.028 161.03 Q 530.425 161.418 529.477 161.418 Z  M 529.75 160.096 Q 530.727 160.096 531.351 159.421 Q 531.974 158.745 531.976 157.682 Q 531.976 156.605 531.351 155.936 Q 530.726 155.268 529.75 155.268 Q 528.773 155.268 528.141 155.936 Q 527.509 156.605 527.509 157.682 C 527.501 158.116 527.599 158.546 527.796 158.933 C 527.978 159.286 528.254 159.581 528.594 159.786 C 528.943 159.995 529.343 160.102 529.75 160.096 L 529.75 160.096 Z " fill="rgb(255,255,255)"/><path d=" M 538.759 161.418 Q 537.71 161.418 536.898 160.951 C 536.362 160.645 535.921 160.194 535.627 159.651 Q 535.167 158.817 535.167 157.711 Q 535.167 156.591 535.619 155.743 C 535.908 155.192 536.346 154.733 536.884 154.42 Q 537.696 153.947 538.774 153.947 Q 539.822 153.947 540.598 154.414 C 541.104 154.713 541.521 155.142 541.805 155.656 C 542.094 156.179 542.242 156.767 542.236 157.364 C 542.236 157.46 542.236 157.563 542.229 157.673 C 542.222 157.783 542.217 157.905 542.208 158.039 L 536.662 158.039 Q 536.733 159.075 537.344 159.613 C 537.731 159.964 538.236 160.157 538.759 160.151 Q 539.406 160.151 539.844 159.857 C 540.136 159.661 540.363 159.384 540.498 159.06 L 542.021 159.06 C 541.831 159.728 541.43 160.317 540.879 160.74 Q 540.024 161.418 538.759 161.418 Z  M 538.759 155.196 C 538.271 155.19 537.794 155.35 537.409 155.649 Q 536.819 156.102 536.69 157.007 L 540.713 157.007 Q 540.67 156.173 540.126 155.685 Q 539.583 155.197 538.759 155.196 Z " fill="rgb(255,255,255)"/><path d=" M 543.817 161.246 L 543.817 154.119 L 545.168 154.119 L 545.297 155.125 C 545.523 154.765 545.837 154.468 546.209 154.263 Q 546.777 153.946 547.524 153.947 Q 549.219 153.947 549.88 155.281 C 550.137 154.871 550.496 154.535 550.922 154.305 C 551.355 154.066 551.843 153.942 552.338 153.946 Q 553.672 153.946 554.435 154.75 Q 555.199 155.555 555.197 157.151 L 555.197 161.246 L 553.674 161.246 L 553.674 157.309 Q 553.674 155.24 552.093 155.24 Q 551.288 155.24 550.779 155.843 Q 550.269 156.447 550.268 157.567 L 550.268 161.246 L 548.745 161.246 L 548.745 157.309 Q 548.745 155.24 547.151 155.24 C 546.647 155.228 546.166 155.451 545.85 155.843 Q 545.339 156.447 545.339 157.567 L 545.339 161.246 L 543.817 161.246 Z " fill="rgb(255,255,255)"/><path d=" M 557.582 164.407 L 559.292 160.655 L 558.875 160.655 L 556.059 154.117 L 557.713 154.117 L 559.897 159.39 L 562.178 154.119 L 563.787 154.119 L 559.19 164.407 L 557.582 164.407 Z " fill="rgb(255,255,255)"/></g><path d=" M 446.106 148.892 C 445.144 146.776 444.87 145.598 444.8 144.647 C 444.796 144.546 444.681 144.504 444.62 144.58 C 443.772 145.355 443.252 147.193 443.351 148.403 C 443.399 148.975 443.489 149.543 443.62 150.102 C 443.74 150.62 443.903 151.117 443.995 151.643 C 444.076 152.105 444.139 152.569 444.14 153.04 C 444.14 153.533 444.002 154.023 443.679 154.381 C 443.295 154.806 442.412 155.008 441.712 154.6 C 440.91 154.134 441.057 152.553 441.131 151.983 C 441.246 151.365 441.271 150.937 441.3 150.198 C 441.336 149.23 441.069 147.941 440.548 147.212 C 440.504 147.151 440.417 147.176 440.403 147.254 C 440.283 147.938 440.134 148.586 439.98 149.137 C 439.826 149.684 438.9 152.262 438.381 153.574 C 437.788 155.078 437.213 157.454 437.198 159.062 C 437.184 160.666 437.602 163.508 438.232 163.766 C 438.812 164.005 439.837 164.166 440.995 164.208 C 441.074 164.21 441.141 164.151 441.148 164.072 C 441.185 163.33 441.187 162.931 441.245 162.205 C 441.303 161.478 441.383 160.947 441.775 160.328 C 442.167 159.709 442.825 159.31 443.566 159.307 C 444.411 159.302 445.038 159.715 445.398 160.259 C 445.762 160.81 445.917 161.496 445.973 162.217 C 446.038 163.051 446.051 163.989 446.052 164.062 C 446.052 164.063 446.052 164.064 446.052 164.065 L 446.052 164.067 L 446.053 164.085 C 446.053 164.085 446.053 164.085 446.053 164.086 C 446.054 164.092 446.055 164.097 446.057 164.102 C 446.076 164.165 446.133 164.215 446.197 164.213 C 447.119 164.178 448.207 164.127 449.104 163.824 C 449.663 163.635 449.888 161.693 449.952 160.363 C 450.052 158.325 449.59 156.298 448.842 154.413 C 448.083 152.497 446.956 150.765 446.106 148.892 Z  M 442.178 159.544 C 442.171 159.549 442.165 159.555 442.159 159.562 L 442.161 159.56 L 442.166 159.554 C 442.171 159.549 442.176 159.544 442.18 159.539 L 442.182 159.537 C 442.18 159.539 442.179 159.542 442.178 159.544 Z " fill="rgb(255,255,255)"/></g></g><path d=" M 408.716 151.989 L 408.716 151.989 L 408.716 151.989 Q 410.539 151.989 411.571 153.412 L 411.571 153.412 L 411.571 153.412 Q 412.602 154.834 412.602 157.311 L 412.602 157.311 L 412.602 157.311 Q 412.602 159.861 411.538 161.261 L 411.538 161.261 L 411.538 161.261 Q 410.475 162.66 408.643 162.66 L 408.643 162.66 L 408.643 162.66 Q 406.829 162.66 405.798 161.343 L 405.798 161.343 L 405.604 161.343 L 405.135 162.476 L 402.99 162.476 L 402.99 148.15 L 405.798 148.15 L 405.798 151.483 L 405.798 151.483 Q 405.798 152.118 405.687 153.518 L 405.687 153.518 L 405.798 153.518 L 405.798 153.518 Q 406.783 151.989 408.716 151.989 Z  M 407.814 154.236 L 407.814 154.236 L 407.814 154.236 Q 406.774 154.236 406.295 154.876 L 406.295 154.876 L 406.295 154.876 Q 405.816 155.515 405.798 156.989 L 405.798 156.989 L 405.798 157.292 L 405.798 157.292 Q 405.798 158.95 406.29 159.668 L 406.29 159.668 L 406.29 159.668 Q 406.783 160.386 407.851 160.386 L 407.851 160.386 L 407.851 160.386 Q 408.716 160.386 409.227 159.589 L 409.227 159.589 L 409.227 159.589 Q 409.738 158.793 409.738 157.274 L 409.738 157.274 L 409.738 157.274 Q 409.738 155.755 409.223 154.995 L 409.223 154.995 L 409.223 154.995 Q 408.707 154.236 407.814 154.236 Z  M 417.537 162.402 L 413.449 152.183 L 416.524 152.183 L 418.466 157.974 L 418.466 157.974 Q 418.715 158.729 418.807 159.76 L 418.807 159.76 L 418.862 159.76 L 418.862 159.76 Q 418.964 158.812 419.258 157.974 L 419.258 157.974 L 421.164 152.183 L 424.175 152.183 L 419.82 163.792 L 419.82 163.792 Q 419.221 165.404 418.112 166.205 L 418.112 166.205 L 418.112 166.205 Q 417.003 167.006 415.52 167.006 L 415.52 167.006 L 415.52 167.006 Q 414.793 167.006 414.093 166.849 L 414.093 166.849 L 414.093 164.621 L 414.093 164.621 Q 414.6 164.741 415.198 164.741 L 415.198 164.741 L 415.198 164.741 Q 415.944 164.741 416.501 164.285 L 416.501 164.285 L 416.501 164.285 Q 417.058 163.829 417.371 162.909 L 417.371 162.909 L 417.537 162.402 L 417.537 162.402 Z  M 425.252 161.159 L 425.252 161.159 L 425.252 161.159 Q 425.252 160.386 425.666 159.99 L 425.666 159.99 L 425.666 159.99 Q 426.081 159.594 426.872 159.594 L 426.872 159.594 L 426.872 159.594 Q 427.637 159.594 428.055 159.999 L 428.055 159.999 L 428.055 159.999 Q 428.474 160.404 428.474 161.159 L 428.474 161.159 L 428.474 161.159 Q 428.474 161.887 428.051 162.306 L 428.051 162.306 L 428.051 162.306 Q 427.627 162.724 426.872 162.724 L 426.872 162.724 L 426.872 162.724 Q 426.099 162.724 425.675 162.315 L 425.675 162.315 L 425.675 162.315 Q 425.252 161.905 425.252 161.159 Z  M 425.252 153.554 L 425.252 153.554 L 425.252 153.554 Q 425.252 152.781 425.666 152.385 L 425.666 152.385 L 425.666 152.385 Q 426.081 151.989 426.872 151.989 L 426.872 151.989 L 426.872 151.989 Q 427.637 151.989 428.055 152.394 L 428.055 152.394 L 428.055 152.394 Q 428.474 152.799 428.474 153.554 L 428.474 153.554 L 428.474 153.554 Q 428.474 154.3 428.046 154.71 L 428.046 154.71 L 428.046 154.71 Q 427.618 155.12 426.872 155.12 L 426.872 155.12 L 426.872 155.12 Q 426.099 155.12 425.675 154.714 L 425.675 154.714 L 425.675 154.714 Q 425.252 154.309 425.252 153.554 Z  M 310.138 162.66 L 310.138 162.66 L 310.138 162.66 Q 305.332 162.66 305.332 157.384 L 305.332 157.384 L 305.332 157.384 Q 305.332 154.76 306.639 153.375 L 306.639 153.375 L 306.639 153.375 Q 307.947 151.989 310.387 151.989 L 310.387 151.989 L 310.387 151.989 Q 312.173 151.989 313.591 152.689 L 313.591 152.689 L 312.762 154.862 L 312.762 154.862 Q 312.099 154.595 311.528 154.424 L 311.528 154.424 L 311.528 154.424 Q 310.957 154.254 310.387 154.254 L 310.387 154.254 L 310.387 154.254 Q 308.195 154.254 308.195 157.366 L 308.195 157.366 L 308.195 157.366 Q 308.195 160.386 310.387 160.386 L 310.387 160.386 L 310.387 160.386 Q 311.197 160.386 311.887 160.17 L 311.887 160.17 L 311.887 160.17 Q 312.578 159.953 313.268 159.493 L 313.268 159.493 L 313.268 161.896 L 313.268 161.896 Q 312.587 162.329 311.892 162.494 L 311.892 162.494 L 311.892 162.494 Q 311.197 162.66 310.138 162.66 Z  M 317.89 157.311 L 317.89 157.311 L 317.89 157.311 Q 317.89 158.839 318.392 159.622 L 318.392 159.622 L 318.392 159.622 Q 318.894 160.404 320.026 160.404 L 320.026 160.404 L 320.026 160.404 Q 321.15 160.404 321.642 159.626 L 321.642 159.626 L 321.642 159.626 Q 322.135 158.848 322.135 157.311 L 322.135 157.311 L 322.135 157.311 Q 322.135 155.782 321.637 155.018 L 321.637 155.018 L 321.637 155.018 Q 321.14 154.254 320.008 154.254 L 320.008 154.254 L 320.008 154.254 Q 318.885 154.254 318.387 155.014 L 318.387 155.014 L 318.387 155.014 Q 317.89 155.773 317.89 157.311 Z  M 325.007 157.311 L 325.007 157.311 L 325.007 157.311 Q 325.007 159.824 323.681 161.242 L 323.681 161.242 L 323.681 161.242 Q 322.356 162.66 319.989 162.66 L 319.989 162.66 L 319.989 162.66 Q 318.507 162.66 317.375 162.011 L 317.375 162.011 L 317.375 162.011 Q 316.242 161.362 315.635 160.147 L 315.635 160.147 L 315.635 160.147 Q 315.027 158.931 315.027 157.311 L 315.027 157.311 L 315.027 157.311 Q 315.027 154.788 316.344 153.389 L 316.344 153.389 L 316.344 153.389 Q 317.66 151.989 320.045 151.989 L 320.045 151.989 L 320.045 151.989 Q 321.527 151.989 322.659 152.634 L 322.659 152.634 L 322.659 152.634 Q 323.792 153.278 324.4 154.484 L 324.4 154.484 L 324.4 154.484 Q 325.007 155.69 325.007 157.311 Z  M 331.36 158.572 L 326.416 158.572 L 326.416 156.27 L 331.36 156.27 L 331.36 158.572 L 331.36 158.572 Z  M 342.896 155.764 L 342.896 162.476 L 340.088 162.476 L 340.088 156.464 L 340.088 156.464 Q 340.088 154.236 338.431 154.236 L 338.431 154.236 L 338.431 154.236 Q 337.252 154.236 336.728 155.037 L 336.728 155.037 L 336.728 155.037 Q 336.203 155.838 336.203 157.633 L 336.203 157.633 L 336.203 162.476 L 333.395 162.476 L 333.395 148.15 L 336.203 148.15 L 336.203 151.069 L 336.203 151.069 Q 336.203 151.409 336.138 152.671 L 336.138 152.671 L 336.074 153.499 L 336.221 153.499 L 336.221 153.499 Q 337.16 151.989 339.204 151.989 L 339.204 151.989 L 339.204 151.989 Q 341.018 151.989 341.957 152.965 L 341.957 152.965 L 341.957 152.965 Q 342.896 153.941 342.896 155.764 L 342.896 155.764 L 342.896 155.764 Z  M 348.024 157.311 L 348.024 157.311 L 348.024 157.311 Q 348.024 158.839 348.526 159.622 L 348.526 159.622 L 348.526 159.622 Q 349.028 160.404 350.16 160.404 L 350.16 160.404 L 350.16 160.404 Q 351.284 160.404 351.776 159.626 L 351.776 159.626 L 351.776 159.626 Q 352.269 158.848 352.269 157.311 L 352.269 157.311 L 352.269 157.311 Q 352.269 155.782 351.772 155.018 L 351.772 155.018 L 351.772 155.018 Q 351.275 154.254 350.142 154.254 L 350.142 154.254 L 350.142 154.254 Q 349.019 154.254 348.522 155.014 L 348.522 155.014 L 348.522 155.014 Q 348.024 155.773 348.024 157.311 Z  M 355.141 157.311 L 355.141 157.311 L 355.141 157.311 Q 355.141 159.824 353.816 161.242 L 353.816 161.242 L 353.816 161.242 Q 352.49 162.66 350.124 162.66 L 350.124 162.66 L 350.124 162.66 Q 348.641 162.66 347.509 162.011 L 347.509 162.011 L 347.509 162.011 Q 346.376 161.362 345.769 160.147 L 345.769 160.147 L 345.769 160.147 Q 345.161 158.931 345.161 157.311 L 345.161 157.311 L 345.161 157.311 Q 345.161 154.788 346.478 153.389 L 346.478 153.389 L 346.478 153.389 Q 347.794 151.989 350.179 151.989 L 350.179 151.989 L 350.179 151.989 Q 351.661 151.989 352.794 152.634 L 352.794 152.634 L 352.794 152.634 Q 353.926 153.278 354.534 154.484 L 354.534 154.484 L 354.534 154.484 Q 355.141 155.69 355.141 157.311 Z  M 364.643 159.419 L 364.643 159.419 L 364.643 159.419 Q 364.643 161.003 363.543 161.831 L 363.543 161.831 L 363.543 161.831 Q 362.442 162.66 360.251 162.66 L 360.251 162.66 L 360.251 162.66 Q 359.128 162.66 358.336 162.508 L 358.336 162.508 L 358.336 162.508 Q 357.544 162.356 356.854 162.062 L 356.854 162.062 L 356.854 159.741 L 356.854 159.741 Q 357.636 160.11 358.617 160.358 L 358.617 160.358 L 358.617 160.358 Q 359.598 160.607 360.343 160.607 L 360.343 160.607 L 360.343 160.607 Q 361.872 160.607 361.872 159.723 L 361.872 159.723 L 361.872 159.723 Q 361.872 159.392 361.669 159.184 L 361.669 159.184 L 361.669 159.184 Q 361.467 158.977 360.969 158.715 L 360.969 158.715 L 360.969 158.715 Q 360.472 158.452 359.644 158.103 L 359.644 158.103 L 359.644 158.103 Q 358.456 157.605 357.899 157.182 L 357.899 157.182 L 357.899 157.182 Q 357.342 156.758 357.089 156.211 L 357.089 156.211 L 357.089 156.211 Q 356.835 155.663 356.835 154.862 L 356.835 154.862 L 356.835 154.862 Q 356.835 153.49 357.899 152.74 L 357.899 152.74 L 357.899 152.74 Q 358.962 151.989 360.914 151.989 L 360.914 151.989 L 360.914 151.989 Q 362.774 151.989 364.532 152.799 L 364.532 152.799 L 363.685 154.825 L 363.685 154.825 Q 362.912 154.493 362.24 154.282 L 362.24 154.282 L 362.24 154.282 Q 361.568 154.07 360.868 154.07 L 360.868 154.07 L 360.868 154.07 Q 359.625 154.07 359.625 154.742 L 359.625 154.742 L 359.625 154.742 Q 359.625 155.12 360.026 155.396 L 360.026 155.396 L 360.026 155.396 Q 360.426 155.672 361.78 156.215 L 361.78 156.215 L 361.78 156.215 Q 362.986 156.703 363.547 157.127 L 363.547 157.127 L 363.547 157.127 Q 364.109 157.55 364.376 158.103 L 364.376 158.103 L 364.376 158.103 Q 364.643 158.655 364.643 159.419 Z  M 371.171 160.423 L 371.171 160.423 L 371.171 160.423 Q 371.907 160.423 372.938 160.1 L 372.938 160.1 L 372.938 162.19 L 372.938 162.19 Q 371.889 162.66 370.36 162.66 L 370.36 162.66 L 370.36 162.66 Q 368.676 162.66 367.907 161.808 L 367.907 161.808 L 367.907 161.808 Q 367.138 160.957 367.138 159.253 L 367.138 159.253 L 367.138 154.291 L 365.794 154.291 L 365.794 153.103 L 367.341 152.164 L 368.151 149.991 L 369.946 149.991 L 369.946 152.183 L 372.828 152.183 L 372.828 154.291 L 369.946 154.291 L 369.946 159.253 L 369.946 159.253 Q 369.946 159.852 370.282 160.137 L 370.282 160.137 L 370.282 160.137 Q 370.618 160.423 371.171 160.423 Z  M 379.282 153.987 L 379.282 153.987 L 379.282 153.987 Q 378.389 153.987 377.882 154.553 L 377.882 154.553 L 377.882 154.553 Q 377.376 155.12 377.302 156.16 L 377.302 156.16 L 381.243 156.16 L 381.243 156.16 Q 381.225 155.12 380.7 154.553 L 380.7 154.553 L 380.7 154.553 Q 380.175 153.987 379.282 153.987 Z  M 379.678 162.66 L 379.678 162.66 L 379.678 162.66 Q 377.192 162.66 375.792 161.288 L 375.792 161.288 L 375.792 161.288 Q 374.393 159.916 374.393 157.403 L 374.393 157.403 L 374.393 157.403 Q 374.393 154.816 375.687 153.402 L 375.687 153.402 L 375.687 153.402 Q 376.98 151.989 379.263 151.989 L 379.263 151.989 L 379.263 151.989 Q 381.446 151.989 382.661 153.232 L 382.661 153.232 L 382.661 153.232 Q 383.876 154.475 383.876 156.666 L 383.876 156.666 L 383.876 158.029 L 377.238 158.029 L 377.238 158.029 Q 377.284 159.226 377.947 159.898 L 377.947 159.898 L 377.947 159.898 Q 378.61 160.57 379.807 160.57 L 379.807 160.57 L 379.807 160.57 Q 380.737 160.57 381.565 160.377 L 381.565 160.377 L 381.565 160.377 Q 382.394 160.183 383.296 159.76 L 383.296 159.76 L 383.296 161.933 L 383.296 161.933 Q 382.56 162.301 381.722 162.48 L 381.722 162.48 L 381.722 162.48 Q 380.884 162.66 379.678 162.66 Z  M 389.419 162.66 L 389.419 162.66 L 389.419 162.66 Q 387.605 162.66 386.569 161.251 L 386.569 161.251 L 386.569 161.251 Q 385.533 159.843 385.533 157.348 L 385.533 157.348 L 385.533 157.348 Q 385.533 154.816 386.588 153.402 L 386.588 153.402 L 386.588 153.402 Q 387.642 151.989 389.492 151.989 L 389.492 151.989 L 389.492 151.989 Q 391.435 151.989 392.457 153.499 L 392.457 153.499 L 392.549 153.499 L 392.549 153.499 Q 392.337 152.348 392.337 151.446 L 392.337 151.446 L 392.337 148.15 L 395.155 148.15 L 395.155 162.476 L 393 162.476 L 392.457 161.141 L 392.337 161.141 L 392.337 161.141 Q 391.38 162.66 389.419 162.66 Z  M 390.404 160.423 L 390.404 160.423 L 390.404 160.423 Q 391.481 160.423 391.983 159.797 L 391.983 159.797 L 391.983 159.797 Q 392.485 159.171 392.531 157.67 L 392.531 157.67 L 392.531 157.366 L 392.531 157.366 Q 392.531 155.709 392.02 154.991 L 392.02 154.991 L 392.02 154.991 Q 391.509 154.273 390.358 154.273 L 390.358 154.273 L 390.358 154.273 Q 389.419 154.273 388.899 155.069 L 388.899 155.069 L 388.899 155.069 Q 388.378 155.865 388.378 157.384 L 388.378 157.384 L 388.378 157.384 Q 388.378 158.904 388.903 159.663 L 388.903 159.663 L 388.903 159.663 Q 389.428 160.423 390.404 160.423 Z " fill="rgb(255,255,255)"/></g></svg>