<?xml version="1.0" encoding="utf-8"?>
<!-- Generator: Adobe Illustrator 24.0.1, SVG Export Plug-In . SVG Version: 6.00 Build 0)  -->
<svg version="1.1" id="Layer_1" xmlns="http://www.w3.org/2000/svg" xmlns:xlink="http://www.w3.org/1999/xlink" x="0px" y="0px"
	 viewBox="0 0 1000 460.5" style="enable-background:new 0 0 1000 460.5;" xml:space="preserve">
<style type="text/css">
	.st0{fill:#7862AD;}
	.st1{fill:#F15D5D;}
	.st2{fill:#782E7A;}
	.st3{fill:none;}
	.st4{fill:#7963AE;}
	.st5{fill:#FEFEFE;}
</style>
<g>
	<path class="st0" d="M396.4,173.8c16.3,16.2,16.3,36.1,0.2,52.4c-1.4,1.4-2.6,3-3.8,4.4c-0.4,0-0.7,0.1-1.1,0.1
		c-1.4-1.7-2.7-3.3-4.3-4.9c-50.9-50.9-102-101.4-152.4-152.8c-15.8-16.1-37.2-15.6-52.7,0C131.8,124.2,80.8,174.9,29.9,225.8
		c-1.6,1.6-2.9,3.3-4.3,5c-0.4-0.1-0.5-0.1-0.9-0.2c-1.1-2.7-3.4-4.2-5.3-6.2c-14.1-15.3-14.1-33.8,0.4-48.9
		c4.9-5.1,10-10.1,15.1-15.1C84.1,111,133.5,61.8,182.9,12.5c13.2-13.2,28.2-16,42.5-8c3.6,1.9,6.3,4.8,9.2,7.5"/>
	<path class="st1" d="M234.6,448.2c-16.3,16.3-35.4,16.3-51.7,0.1C129.3,394.7,75.7,341.1,22.1,287.5c-17.7-17.7-17.9-35.9-0.2-53.7
		c1-1,1.8-2,2.7-3.1c0.4,0.1,0.6,0.1,1,0c1.5,1.8,3,3.6,4.6,5.2c48.7,48.5,97.4,96.8,146.2,145.3c3.2,3.2,6.4,6.4,9.8,9.6
		c1.8,1.8,3.7,3.6,6.1,4.8c14.4,7.7,29.8,5.1,42.2-7.3C285.6,337.2,337,286,388.2,234.8c1.2-1.2,2.4-2.6,3.5-4.1
		c0.4,0,0.7-0.1,1.1-0.1c1.9,2,3.8,4.1,5.7,6c13.7,14.2,13.8,33.8-0.1,47.8"/>
	<path class="st2" d="M391.8,230.7c-1.2,1.3-2.3,2.7-3.5,4.1C337.1,286,285.9,337.2,234.5,388.4c-12.4,12.4-27.8,14.9-42.2,7.3
		c-2.4-1.2-4.2-3-6.1-4.8c-3.2-3.2-6.6-6.4-9.8-9.6C127.8,332.8,79.1,284.4,30.3,236c-1.7-1.7-3.1-3.6-4.6-5.2
		c1.4-1.7,2.7-3.3,4.3-4.9C80.9,175,131.8,124.3,182.5,73.2c15.5-15.6,36.9-16.1,52.7,0c50.4,51.2,101.5,101.9,152.4,152.7
		C389,227.4,390.3,229,391.8,230.7z"/>
</g>
<polygon class="st3" points="295.6,411.7 298.6,411.7 298.6,411.7 "/>
<g>
	<g>
		<path class="st4" d="M734,270.7"/>
		<path class="st5" d="M543.1,306.7"/>
	</g>
	<g>
		<path class="st0" d="M495.7,271.6h-18.8v-40.3c0-5-0.8-8.7-2.5-11.2c-1.7-2.5-4.3-3.8-7.8-3.8c-4.8,0-8.3,1.8-10.5,5.3
			c-2.2,3.5-3.2,9.4-3.2,17.4v32.4H434v-68.9h14.3l2.5,8.8h1.1c1.8-3.1,4.5-5.7,8-7.4s7.5-2.7,12-2.7c10.3,0,17.3,3.4,20.9,10.1h1.7
			c1.8-3.2,4.6-5.7,8.2-7.4c3.6-1.8,7.7-2.6,12.2-2.6c7.8,0,13.7,2,17.7,6c4,4,6,10.4,6,19.3v44.9h-18.9v-40.3c0-5-0.8-8.7-2.5-11.2
			c-1.7-2.5-4.3-3.8-7.8-3.8c-4.6,0-8.1,1.6-10.3,4.9c-2.3,3.3-3.4,8.5-3.4,15.7L495.7,271.6L495.7,271.6z"/>
		<path class="st0" d="M601.7,271.6l-3.6-9.4h-0.5c-3.2,4-6.4,6.8-9.7,8.3c-3.4,1.6-7.7,2.3-13.1,2.3c-6.6,0-11.8-1.9-15.6-5.7
			c-3.8-3.8-5.7-9.2-5.7-16.1c0-7.3,2.6-12.7,7.7-16.2c5.1-3.5,12.8-5.4,23.1-5.8l12-0.4v-3c0-7-3.6-10.5-10.8-10.5
			c-5.5,0-12,1.7-19.4,5l-6.2-12.7c8-4.1,16.7-6.2,26.4-6.2c9.2,0,16.4,2,21.3,6s7.4,10.1,7.4,18.4v45.9L601.7,271.6L601.7,271.6z
			 M596.2,239.7l-7.3,0.2c-5.5,0.2-9.5,1.2-12.2,3c-2.7,1.8-4,4.5-4,8.2c0,5.3,3,8,9.1,8c4.4,0,7.8-1.2,10.5-3.8s3.9-5.8,3.9-10
			V239.7z"/>
		<path class="st0" d="M652.2,234.1l8.2-10.5l19.3-20.9h21.2l-27.4,29.9l29,39h-21.7L661,243.7l-8.1,6.4v21.5h-18.8v-95.9h18.8v42.8
			l-1,15.7L652.2,234.1L652.2,234.1z"/>
		<path class="st0" d="M743.6,272.8c-11.1,0-19.8-3.1-26-9.2c-6.3-6.1-9.4-14.8-9.4-26c0-11.5,2.9-20.5,8.7-26.8
			c5.8-6.3,13.8-9.5,24-9.5c9.7,0,17.3,2.8,22.7,8.3s8.1,13.2,8.1,23v9h-44.5c0.2,5.3,1.8,9.5,4.8,12.5c3,3,7.1,4.5,12.4,4.5
			c4.1,0,8.1-0.4,11.8-1.3s7.6-2.2,11.6-4.1v14.6c-3.3,1.6-6.8,2.9-10.5,3.6C753.6,272.3,749,272.8,743.6,272.8z M741,214.8
			c-4,0-7.1,1.3-9.4,3.8c-2.2,2.5-3.5,6.1-3.9,10.8h26.4c-0.1-4.6-1.3-8.2-3.6-10.8C748.2,216,745,214.8,741,214.8z"/>
		<path class="st1" d="M839.3,253.2c0,7.1-2.5,12.4-7.4,16.1c-4.9,3.7-12.3,5.5-22,5.5c-5,0-9.3-0.3-12.8-1c-3.5-0.7-6.8-1.7-9.9-3
			v-15.5c3.5,1.6,7.4,3,11.8,4.1s8.2,1.7,11.5,1.7c6.8,0,10.2-2,10.2-5.9c0-1.5-0.4-2.7-1.3-3.6c-0.9-1-2.5-2-4.7-3.1
			c-2.2-1.2-5.2-2.5-8.8-4.1c-5.3-2.2-9.2-4.3-11.7-6.2c-2.5-1.9-4.3-4-5.4-6.5c-1.1-2.5-1.7-5.4-1.7-9c0-6.1,2.4-10.9,7.1-14.2
			c4.8-3.4,11.5-5,20.2-5c8.3,0,16.4,1.8,24.3,5.4l-5.7,13.6c-3.5-1.5-6.7-2.7-9.7-3.6s-6-1.4-9.2-1.4c-5.5,0-8.3,1.5-8.3,4.5
			c0,1.7,0.9,3.1,2.7,4.4s5.7,3.1,11.8,5.5c5.4,2.2,9.4,4.2,11.8,6.1c2.5,1.9,4.4,4.1,5.5,6.6C838.7,246.8,839.3,249.8,839.3,253.2z
			"/>
		<path class="st1" d="M887.6,272.8c-8.1,0-14.4-2.9-19-8.8h-1c0.7,5.8,1,9.1,1,10V302h-18.8v-99.3H865l2.6,9h0.8
			c4.4-6.8,10.9-10.2,19.5-10.2c8.1,0,14.5,3.1,19.1,9.4c4.6,6.3,6.9,15,6.9,26.2c0,7.3-1.1,13.7-3.2,19.2
			c-2.2,5.4-5.2,9.6-9.2,12.4C897.7,271.4,893,272.8,887.6,272.8z M882.1,216.4c-4.6,0-8,1.5-10.2,4.3c-2.1,2.9-3.2,7.6-3.3,14.2v2
			c0,7.4,1.1,12.7,3.3,15.9c2.2,3.2,5.7,4.8,10.5,4.8c8.4,0,12.7-6.9,12.7-20.8c0-6.8-1.1-11.9-3.1-15.2
			C889.8,218.1,886.5,216.4,882.1,216.4z"/>
		<path class="st1" d="M967.5,272.8c-8.1,0-14.4-2.9-19-8.8h-1c0.7,5.8,1,9.1,1,10V302h-18.8v-99.3H945l2.6,9h0.8
			c4.4-6.8,10.9-10.2,19.5-10.2c8.1,0,14.5,3.1,19.1,9.4c4.6,6.3,6.9,15,6.9,26.2c0,7.3-1.1,13.7-3.2,19.2
			c-2.2,5.4-5.2,9.6-9.2,12.4C977.5,271.4,972.9,272.8,967.5,272.8z M962,216.4c-4.6,0-8,1.5-10.2,4.3c-2.1,2.9-3.2,7.6-3.3,14.2v2
			c0,7.4,1.1,12.7,3.3,15.9c2.2,3.2,5.7,4.8,10.5,4.8c8.4,0,12.7-6.9,12.7-20.8c0-6.8-1.1-11.9-3.1-15.2
			C969.7,218.1,966.4,216.4,962,216.4z"/>
	</g>
	<polygon class="st3" points="705.2,124.3 708.2,124.3 708.2,124.3 	"/>
</g>
</svg>
