<svg xmlns="http://www.w3.org/2000/svg" style="isolation:isolate" viewBox="592.139 265.236 205.721 230.528" width="274.295" height="307.371"><defs><clipPath id="a"><path d="M592.139 265.236H797.86v230.528H592.139z"/></clipPath></defs><g clip-path="url(#a)"><clipPath id="b"><path d="M592.139 265.236h205.722v230.528H592.139V265.236z" fill="#FFF"/></clipPath><g clip-path="url(#b)"><path d="M786.9 378.723c-.577.655.577 4.51-.026 5.166-25.177 25.176-47.625 50.798-72.88 75.974-6.084 6.085-21.059 11.172-28.166 7.422-1.18-.577-6.556.865-7.5 0-1.574-1.573-8.13-12.929-9.704-14.503-23.775-23.645-35.376-47.058-59.006-70.729-.167-.167-.881-.252-1.049-.419-.813-.813-1.102-1.867-1.678-2.885-.086-.406.127-.813.367-1.416 1.14-2.867 3.515-9.6 4.143-10.228 25.019-25.019 47.677-49.618 72.565-74.742 7.605-7.683 18.148-7.92 25.884 0 4.448-16.025 29.574 16.995 74.925 83.187.761.708 1.417 2.36 2.125 3.173z" fill="#782E7A"/><path d="M789.155 350.741c8.025 7.972 8.025 17.754.105 25.779-.708.708-1.285 1.468-1.862 2.177-.184 0-.341.052-.524.052-.709-.813-1.338-1.652-2.099-2.413-25.018-25.018-50.142-49.854-74.925-75.135-7.789-7.92-18.279-7.684-25.884 0-24.888 25.15-49.959 50.038-74.977 75.057-.761.76-1.417 1.599-2.151 2.439-.21-.027-.184.052-.367.026-.525-1.311-1.783-2.177-2.701-3.173-6.924-7.501-6.924-16.653.183-24.023 2.413-2.517 4.931-4.982 7.448-7.448a94229.563 94229.563 0 0172.801-72.722c6.504-6.504 13.873-7.841 20.902-3.934 1.757.944 3.094 2.334 4.51 3.698" fill="#7862AD"/><path d="M709.641 485.695c-8.025 8.025-17.388 8.025-25.413.052l-79.068-79.068c-8.733-8.733-8.786-17.624-.105-26.409.472-.472.891-.997 1.337-1.521a.734.734 0 00.472 0c.761.892 1.469 1.757 2.282 2.57 23.97 23.839 47.913 47.625 71.883 71.463a399.868 399.868 0 004.799 4.747c.892.892 1.81 1.757 2.99 2.334 7.081 3.803 14.633 2.518 20.744-3.566 25.176-25.176 50.431-50.379 75.633-75.555a18.41 18.41 0 001.705-1.993c.183 0 .341-.052.524-.052.944.996 1.862 1.993 2.806 2.937 6.74 6.976 6.793 16.626-.052 23.497" fill="#F15D5D"/><path d="M753.668 514.685h1.842-1.842z" fill="none"/></g></g></svg>