<?xml version="1.0" encoding="UTF-8" standalone="no"?><!-- Generator: Gravit.io --><svg xmlns="http://www.w3.org/2000/svg" xmlns:xlink="http://www.w3.org/1999/xlink" style="isolation:isolate" viewBox="592.139 265.236 205.721 230.528" width="205.721pt" height="230.528pt"><defs><clipPath id="_clipPath_SPRSU9Qr7h5nXYfZUGU5bLcQcoqaYaOa"><rect x="592.139" y="265.236" width="205.721" height="230.528"/></clipPath></defs><g clip-path="url(#_clipPath_SPRSU9Qr7h5nXYfZUGU5bLcQcoqaYaOa)"><g><g><clipPath id="_clipPath_4tGVC0tuRT6NBN6LxSrtADTBwkjaWOHa"><path d=" M 592.139 265.236 L 797.861 265.236 C 797.861 265.236 797.861 265.236 797.861 265.236 L 797.861 495.764 C 797.861 495.764 797.861 495.764 797.861 495.764 L 592.139 495.764 C 592.139 495.764 592.139 495.764 592.139 495.764 L 592.139 265.236 C 592.139 265.236 592.139 265.236 592.139 265.236 Z " fill="rgb(255,255,255)"/></clipPath><g clip-path="url(#_clipPath_4tGVC0tuRT6NBN6LxSrtADTBwkjaWOHa)"><g><g><g><g><g><g><path d=" M 786.9 378.723 C 786.323 379.378 787.477 383.233 786.874 383.889 C 761.697 409.065 739.249 434.687 713.994 459.863 C 707.91 465.948 692.935 471.035 685.828 467.285 C 684.648 466.708 679.272 468.15 678.328 467.285 C 676.754 465.712 670.198 454.356 668.624 452.782 C 644.849 429.137 633.248 405.724 609.618 382.053 C 609.451 381.886 608.737 381.801 608.569 381.634 C 607.756 380.821 607.467 379.767 606.891 378.749 C 606.805 378.343 607.018 377.936 607.258 377.333 C 608.398 374.466 610.773 367.733 611.401 367.105 C 636.42 342.086 659.078 317.487 683.966 292.363 C 691.571 284.68 702.114 284.443 709.85 292.363 C 714.298 276.338 739.424 309.358 784.775 375.55 C 785.536 376.258 786.192 377.91 786.9 378.723 Z " fill="rgb(120,46,122)"/><path d=" M 789.155 350.741 C 797.18 358.713 797.18 368.495 789.26 376.52 C 788.552 377.228 787.975 377.988 787.398 378.697 C 787.214 378.697 787.057 378.749 786.874 378.749 C 786.165 377.936 785.536 377.097 784.775 376.336 C 759.757 351.318 734.633 326.482 709.85 301.201 C 702.061 293.281 691.571 293.517 683.966 301.201 C 659.078 326.351 634.007 351.239 608.989 376.258 C 608.228 377.018 607.572 377.857 606.838 378.697 C 606.628 378.67 606.654 378.749 606.471 378.723 C 605.946 377.412 604.688 376.546 603.77 375.55 C 596.846 368.049 596.846 358.897 603.953 351.527 C 606.366 349.01 608.884 346.545 611.401 344.079 C 635.659 319.821 659.891 295.615 684.202 271.357 C 690.706 264.853 698.075 263.516 705.104 267.423 C 706.861 268.367 708.198 269.757 709.614 271.121" fill="rgb(120,98,173)"/><path d=" M 709.641 485.695 C 701.616 493.72 692.253 493.72 684.228 485.747 C 657.872 459.391 631.516 433.035 605.16 406.679 C 596.427 397.946 596.374 389.055 605.055 380.27 C 605.527 379.798 605.946 379.273 606.392 378.749 C 606.576 378.801 606.681 378.801 606.864 378.749 C 607.625 379.641 608.333 380.506 609.146 381.319 C 633.116 405.158 657.059 428.944 681.029 452.782 C 682.602 454.356 684.202 455.956 685.828 457.529 C 686.72 458.421 687.638 459.286 688.818 459.863 C 695.899 463.666 703.451 462.381 709.562 456.297 C 734.738 431.121 759.993 405.918 785.195 380.742 C 785.772 380.165 786.375 379.457 786.9 378.749 C 787.083 378.749 787.241 378.697 787.424 378.697 C 788.368 379.693 789.286 380.69 790.23 381.634 C 796.97 388.61 797.023 398.26 790.178 405.131" fill="rgb(241,93,93)"/></g><path d=" M 753.668 514.685 L 755.51 514.685 L 755.51 514.685 L 753.668 514.685 Z " fill="none"/></g></g></g></g></g></g></g></g></g></svg>