<?xml version="1.0" standalone="no"?>
<!DOCTYPE svg PUBLIC "-//W3C//DTD SVG 20010904//EN"
 "http://www.w3.org/TR/2001/REC-SVG-20010904/DTD/svg10.dtd">
<svg version="1.0" xmlns="http://www.w3.org/2000/svg"
 width="515.000000pt" height="430.000000pt" viewBox="0 0 515.000000 430.000000"
 preserveAspectRatio="xMidYMid meet">
<metadata>
Created by potrace 1.15, written by Peter Selinger 2001-2017
</metadata>
<g transform="translate(0.000000,430.000000) scale(0.100000,-0.100000)"
fill="#000000" stroke="none">
<path d="M2505 4293 c-11 -2 -58 -11 -105 -20 -213 -39 -458 -145 -623 -269
-189 -142 -359 -343 -446 -527 -53 -112 -69 -152 -76 -182 -4 -17 -13 -49 -21
-72 -19 -58 -44 -258 -44 -346 1 -154 33 -282 115 -453 56 -116 147 -253 314
-469 167 -216 233 -315 286 -429 68 -145 75 -194 75 -530 0 -314 5 -351 55
-450 60 -118 179 -216 326 -266 l84 -29 5 -63 c10 -122 61 -158 227 -158 132
0 173 11 211 54 24 28 30 46 36 104 l7 71 55 11 c148 31 285 143 358 292 47
97 55 159 55 468 0 241 7 318 32 400 24 76 85 190 160 300 106 155 129 181
129 147 0 -37 31 -45 212 -52 157 -6 180 -5 206 10 30 18 29 15 99 278 14 50
19 58 46 65 27 7 45 1 127 -46 148 -83 198 -105 225 -98 38 10 275 244 275
271 0 13 -36 82 -80 155 -44 73 -80 140 -80 149 0 38 26 52 177 91 166 42 190
52 196 77 2 10 5 91 6 179 3 210 11 200 -195 249 -83 19 -153 35 -156 35 -3 0
-11 13 -18 29 -14 34 -16 30 81 182 99 155 100 148 -58 298 -159 151 -147 150
-330 45 -112 -63 -138 -74 -163 -69 -16 4 -32 11 -36 16 -3 5 -23 76 -44 157
-29 108 -45 152 -61 165 -18 15 -45 17 -203 17 -207 0 -218 -4 -236 -73 -6
-23 -13 -48 -15 -54 -3 -8 -30 7 -74 40 -205 154 -444 254 -694 291 -96 15
-370 20 -422 9z m425 -169 c231 -40 496 -168 656 -317 61 -56 63 -71 14 -82
-25 -5 -51 6 -163 69 -183 105 -171 106 -330 -45 -158 -150 -157 -143 -58
-298 97 -152 95 -148 81 -182 -7 -16 -15 -29 -18 -29 -3 0 -73 -16 -156 -35
-205 -49 -196 -36 -196 -256 0 -216 -11 -203 202 -253 149 -35 157 -39 168
-66 12 -28 8 -36 -69 -160 -105 -168 -105 -172 -8 -266 158 -153 184 -174 218
-174 21 0 76 25 169 79 133 76 138 78 169 65 17 -7 31 -14 31 -16 0 -2 4 -17
9 -35 9 -30 4 -38 -71 -135 -106 -135 -190 -262 -244 -370 -44 -87 -94 -239
-94 -284 l0 -24 -235 0 -235 0 0 119 c0 110 -2 122 -23 146 -29 35 -89 37
-121 6 -19 -19 -21 -35 -25 -146 l-3 -125 -227 0 -226 0 -17 80 c-9 44 -32
116 -51 160 -69 159 -98 202 -419 622 -219 288 -299 476 -301 708 -4 642 518
1189 1203 1260 94 10 259 3 370 -16z m1139 -346 c21 -75 43 -143 49 -151 17
-21 170 -80 204 -79 15 0 84 33 153 73 l125 72 56 -48 c31 -27 58 -54 61 -61
2 -7 -30 -66 -71 -132 -44 -68 -76 -130 -76 -144 0 -15 18 -64 39 -111 45 -97
29 -88 229 -134 l123 -28 -3 -84 -3 -85 -147 -35 c-81 -20 -152 -41 -158 -47
-18 -18 -80 -167 -80 -192 0 -13 34 -77 76 -143 41 -65 74 -123 72 -128 -2 -5
-28 -31 -59 -59 l-56 -52 -36 80 c-25 55 -42 80 -54 81 -42 3 -142 -3 -187
-12 -27 -5 -51 -8 -52 -6 -2 1 3 30 11 62 31 128 10 138 -62 33 -90 -131 -117
-187 -154 -328 l-36 -135 -88 0 -88 0 -37 138 c-23 85 -44 145 -56 156 -10 10
-58 33 -107 51 -101 38 -83 42 -254 -57 l-113 -65 -60 53 c-33 28 -60 56 -60
61 0 5 34 64 75 131 41 66 75 130 75 141 0 24 -62 172 -80 190 -6 6 -77 27
-158 47 l-147 35 -3 85 -3 84 123 28 c199 46 184 37 229 134 21 47 39 96 39
109 0 14 -34 78 -75 143 -41 65 -75 123 -75 128 0 8 47 55 97 97 22 19 24 18
149 -53 69 -40 138 -73 153 -73 40 -1 190 62 206 86 7 12 27 75 45 141 17 66
33 126 35 133 4 9 27 12 91 10 l87 -3 36 -137z m-839 -2668 c0 -22 -2 -40 -6
-40 -12 0 -1022 -120 -1051 -125 l-33 -6 0 106 0 105 545 0 545 0 0 -40z m0
-270 c0 -49 -4 -70 -12 -70 -7 -1 -192 -22 -411 -49 -445 -54 -440 -52 -435
-124 2 -30 10 -45 30 -60 l27 -20 363 42 c200 24 372 45 382 48 17 5 15 -1
-10 -34 -42 -58 -94 -99 -160 -131 l-59 -27 -260 0 -260 0 -57 27 c-79 37
-155 110 -189 182 -28 59 -47 141 -35 153 5 6 997 129 1059 132 27 1 27 1 27
-69z M2533 3920 c-138 -19 -311 -78 -420 -143 -49 -29 -73 -60 -73 -93 0
-22 55 -74 78 -74 11 0 71 25 134 55 178 87 236 99 468 99 107 1 201 5 208 9
25 17 33 56 18 92 -11 26 -23 36 -53 45 -50 14 -282 21 -360 10z M2312 2627 c-43 -46 -31 -72 77 -179 91 -91 102 -98 138 -98 49 0 83
32 83 78 0 35 -10 47 -122 151 -68 63 -82 71 -116 71 -27 0 -45 -7 -60 -23z M2705 2406 l-100 -93 -3 -229 c-4 -250 0 -286 29 -315 28 -28 84 -25
114 6 l25 24 0 222 0 222 77 72 c70 65 77 75 77 109 0 48 -31 76 -83 76 -32 0
-48 -11 -136 -94z M3845 3317 c-117 -30 -214 -109 -263 -215 -23 -49 -27 -70 -27 -152
0 -82 4 -103 27 -152 54 -115 167 -198 302 -220 171 -28 352 65 424 220 23 49
27 70 27 152 0 87 -3 101 -32 161 -63 127 -187 208 -331 215 -43 2 -99 -2
-127 -9z m221 -183 c145 -89 145 -279 0 -369 -43 -26 -59 -30 -121 -30 -62 0
-78 4 -121 30 -200 124 -105 415 132 402 48 -2 73 -10 110 -33z M620 3733 c-43 -16 -62 -61 -44 -108 9 -21 61 -47 206 -100 135 -50
183 -55 216 -25 26 24 21 75 -10 102 -20 18 -319 139 -340 137 -7 0 -20 -3
-28 -6z M272 2927 c-29 -31 -29 -77 1 -105 23 -21 30 -22 280 -22 169 0 264
4 281 11 51 23 55 103 7 128 -12 7 -117 11 -284 11 -263 0 -264 0 -285 -23z M840 2246 c-263 -93 -270 -97 -270 -156 0 -53 26 -74 87 -68 55 5
304 103 334 131 24 23 25 78 2 99 -33 29 -57 28 -153 -6z"/>

</g>
</svg>
